<?xml version="1.0" encoding="UTF-8"?> <svg xmlns="http://www.w3.org/2000/svg" id="Ebene_1" data-name="Ebene 1" width="74" height="14.4" version="1.1" viewBox="0 0 74 14.4"><defs><style> .cls-1 { fill: #050B13; stroke-width: 0px; } </style></defs><g><polygon class="cls-1" points="13 14.1 21.6 14.1 21.6 12.3 14.8 12.3 14.8 8.1 21 8.1 21 6.3 14.8 6.3 14.8 2.1 21.5 2.1 21.5 .3 13 .3 13 14.1"></polygon><path class="cls-1" d="M9.8,4.1c0-2.3-1.7-3.8-3.8-3.8H.2v13.8h5.8c2.1,0,3.8-1.5,3.8-3.8s-.7-2.4-1.7-3.1c1-.6,1.7-1.8,1.7-3.1ZM6,12.3H2v-4.2h4.1c1.1,0,2,.9,2,2.2s-.9,2.1-2.1,2.1ZM6.1,6.3H2V2.1h4c1.2,0,2.1.8,2.1,2.1s-.8,2.2-2,2.2Z"></path><polygon class="cls-1" points="50.6 14.1 59.2 14.1 59.2 12.3 52.4 12.3 52.4 8.1 58.6 8.1 58.6 6.3 52.4 6.3 52.4 2.1 59.1 2.1 59.1 .3 50.6 .3 50.6 14.1"></polygon><polygon class="cls-1" points="72.3 .3 72.3 11.3 63.5 .3 61.7 .3 61.7 14.1 63.5 14.1 63.5 3.2 72.3 14.1 74.1 14.1 74.1 .3 72.3 .3"></polygon><polygon class="cls-1" points="46.1 .3 39.3 7.2 39.3 .3 37.5 .3 37.5 14.1 39.3 14.1 39.3 9.7 41.4 7.6 46.3 14.1 48.6 14.1 42.6 6.3 48.6 .3 46.1 .3"></polygon></g><path class="cls-1" d="M30.7,12.5c-2.9,0-5.3-2.4-5.3-5.3s2.2-5.3,5.3-5.3,2.9.5,4.1,1.8l.7-1.6c-1.3-1.2-3-2-4.9-2-3.9,0-7.1,3.2-7.1,7.1s3.2,7.1,7.1,7.1,1.9-.2,2.8-.6l-.3-1.8c-.7.4-1.6.6-2.4.6Z"></path></svg> 