<?xml version="1.0" encoding="UTF-8" standalone="no"?>
<!-- Created with Inkscape (http://www.inkscape.org/) -->
<svg
   xmlns:svg="http://www.w3.org/2000/svg"
   xmlns="http://www.w3.org/2000/svg"
   version="1.0"
   width="768.57141"
   height="211.42857"
   id="svg2705">
  <defs
     id="defs2707" />
  <g
     transform="translate(328.57144,-352.36218)"
     id="layer1">
    <path
       d="M -275.45534,503.43519 L -307.32141,503.43519 L -307.32141,516.07048 L -278.04863,516.07048 L -278.04863,526.69063 L -307.32141,526.69063 L -307.32141,542.25038 L -274.02959,542.25038 L -274.02959,552.87615 L -319.61429,552.87615 L -319.61429,492.81504 L -275.45534,492.81504 L -275.45534,503.43519 z"
       id="path55"
       style="fill:#231f20;fill-opacity:1;fill-rule:nonzero;stroke:none" />
    <path
       d="M -228.52909,492.81504 L -216.81998,492.81504 L -216.81998,552.87615 L -229.36546,552.87615 L -253.87263,510.04753 L -254.04103,510.04753 L -254.04103,552.87615 L -265.75014,552.87615 L -265.75014,492.81504 L -252.5367,492.81504 L -228.69749,534.6389 L -228.52909,534.6389 L -228.52909,492.81504 z"
       id="path57"
       style="fill:#231f20;fill-opacity:1;fill-rule:nonzero;stroke:none" />
    <path
       d="M -177.92621,520.5049 L -152.83526,520.5049 L -152.83526,552.87615 L -161.19891,552.87615 L -162.45626,545.34325 C -165.63333,549.0255 -170.23614,554.46468 -181.19308,554.46468 C -195.65827,554.46468 -208.79313,544.09151 -208.79313,523.01399 C -208.79313,506.61787 -199.67731,491.14231 -179.43616,491.22651 C -161.03051,491.22651 -153.75582,503.18821 -153.08785,511.47328 L -165.63333,511.47328 C -165.63333,509.12696 -169.89935,501.59407 -178.76257,501.59407 C -187.71561,501.59407 -195.99506,507.79103 -195.99506,523.18239 C -195.99506,539.57289 -187.04764,543.83892 -178.51559,543.83892 C -175.7539,543.83892 -166.55389,542.74996 -163.9606,530.62547 L -177.92621,530.62547 L -177.92621,520.5049 z"
       id="path59"
       style="fill:#231f20;fill-opacity:1;fill-rule:nonzero;stroke:none" />
    <path
       d="M -98.218946,503.43519 L -130.08501,503.43519 L -130.08501,516.07048 L -100.81224,516.07048 L -100.81224,526.69063 L -130.08501,526.69063 L -130.08501,542.25038 L -96.793196,542.25038 L -96.793196,552.87615 L -142.37789,552.87615 L -142.37789,492.81504 L -98.218946,492.81504 L -98.218946,503.43519 z"
       id="path61"
       style="fill:#231f20;fill-opacity:1;fill-rule:nonzero;stroke:none" />
    <path
       d="M -75.305914,541.99779 L -45.443757,541.99779 L -45.443757,552.87615 L -87.851388,552.87615 L -87.851388,492.81504 L -75.305914,492.81504 L -75.305914,541.99779 z"
       id="path63"
       style="fill:#231f20;fill-opacity:1;fill-rule:nonzero;stroke:none" />
    <path
       d="M -5.1859765,506.61787 C -5.1859765,509.71074 -7.5266757,512.05705 -10.70374,514.06096 C -13.549626,510.96248 -15.05396,508.53758 -15.05396,506.53367 C -15.05396,503.35099 -12.797459,501.67827 -10.204166,501.67827 C -7.35828,501.67827 -5.1859765,503.27241 -5.1859765,506.61787 M 10.121186,539.74129 C 14.134615,534.47051 16.228334,529.78911 16.980501,521.67244 L 6.6073304,521.67244 C 6.1919545,526.27525 5.0187983,529.20534 3.5144641,531.54604 L -5.0175809,521.00447 C -2.5926839,519.58433 4.9346005,515.14991 4.9346005,506.69645 C 4.9346005,497.08106 -3.1820686,492.81504 -9.783177,492.81504 C -19.151587,492.81504 -25.763922,498.417 -25.763922,506.61787 C -25.763922,511.79884 -22.833838,516.32307 -20.324743,519.16334 L -21.582097,519.91551 C -31.534278,525.93846 -33.122811,531.63023 -33.122811,537.40059 C -33.122811,546.34801 -25.842506,554.46468 -14.385991,554.46468 C -5.3543721,554.46468 -0.75155839,551.282 2.762297,547.77376 L 6.8599238,552.87615 L 20.99393,552.87615 L 10.121186,539.74129 z M -3.2606532,540.40926 C -5.2701743,542.25038 -8.6998318,544.59108 -12.544865,544.59108 C -19.572576,544.59108 -21.413701,538.98912 -21.413701,536.64842 C -21.413701,531.87721 -19.235785,530.20448 -14.301793,526.61204 L -3.2606532,540.40926 z"
       id="path65"
       style="fill:#db1e26;fill-opacity:1;fill-rule:nonzero;stroke:none" />
    <path
       d="M 64.305284,492.81504 L 77.355945,492.81504 L 56.91833,552.87615 L 44.96224,552.87615 L 24.721086,492.81504 L 38.187123,492.81504 L 51.063775,538.32115 L 51.232171,538.32115 L 64.305284,492.81504 z"
       id="path67"
       style="fill:#231f20;fill-opacity:1;fill-rule:nonzero;stroke:none" />
    <path
       d="M 92.393674,522.84559 C 92.393674,506.02849 101.93048,501.84666 108.7056,501.84666 C 115.48071,501.84666 125.01752,506.02849 125.01752,522.84559 C 125.01752,539.65709 115.48071,543.83892 108.7056,543.83892 C 101.93048,543.83892 92.393674,539.65709 92.393674,522.84559 M 79.8482,522.84559 C 79.8482,551.03502 100.75732,554.46468 108.7056,554.46468 C 116.65387,554.46468 137.56299,551.03502 137.56299,522.84559 C 137.56299,494.65617 116.65387,491.22651 108.7056,491.22651 C 100.75732,491.22651 79.8482,494.65617 79.8482,522.84559 M 105.85971,476.33472 L 95.318145,476.33472 L 95.318145,485.95573 L 105.85971,485.95573 L 105.85971,476.33472 z M 122.17163,476.33472 L 111.63007,476.33472 L 111.63007,485.95573 L 122.17163,485.95573 L 122.17163,476.33472 z"
       id="path69"
       style="fill:#231f20;fill-opacity:1;fill-rule:nonzero;stroke:none" />
    <path
       d="M 158.75278,541.99779 L 188.60932,541.99779 L 188.60932,552.87615 L 146.20169,552.87615 L 146.20169,492.81504 L 158.75278,492.81504 L 158.75278,541.99779 z"
       id="path71"
       style="fill:#231f20;fill-opacity:1;fill-rule:nonzero;stroke:none" />
    <path
       d="M 210.18641,552.87615 L 197.64094,552.87615 L 197.64094,492.81504 L 210.18641,492.81504 L 210.18641,517.24363 L 233.10506,492.81504 L 249.33278,492.81504 L 224.82561,517.40642 L 250.75292,552.87615 L 234.60939,552.87615 L 216.04097,526.52785 L 210.18641,532.5508 L 210.18641,552.87615 z"
       id="path73"
       style="fill:#231f20;fill-opacity:1;fill-rule:nonzero;stroke:none" />
    <path
       d="M 300.68784,503.43519 L 268.82177,503.43519 L 268.82177,516.07048 L 298.09454,516.07048 L 298.09454,526.69063 L 268.82177,526.69063 L 268.82177,542.25038 L 302.10797,542.25038 L 302.10797,552.87615 L 256.52328,552.87615 L 256.52328,492.81504 L 300.68784,492.81504 L 300.68784,503.43519 z"
       id="path75"
       style="fill:#231f20;fill-opacity:1;fill-rule:nonzero;stroke:none" />
    <path
       d="M 324.02186,519.24754 L 324.02186,503.18821 L 339.66581,503.18821 C 347.0247,503.18821 348.44483,507.86961 348.44483,511.05229 C 348.44483,516.99104 345.26777,519.24754 338.74525,519.24754 L 324.02186,519.24754 z M 311.72897,552.87615 L 324.02186,552.87615 L 324.02186,529.36812 L 336.98832,529.36812 C 346.27253,529.36812 346.7721,532.5508 346.7721,540.74605 C 346.7721,546.9374 347.27729,550.03026 348.11366,552.87615 L 361.99507,552.87615 L 361.99507,551.282 C 359.32319,550.28286 359.32319,548.10494 359.32319,539.32591 C 359.32319,528.11638 356.6457,526.27525 351.71171,524.10295 C 357.65046,522.09343 360.99592,516.40727 360.99592,509.79493 C 360.99592,504.60835 358.06584,492.81504 342.09071,492.81504 L 311.72897,492.81504 L 311.72897,552.87615 z"
       id="path77"
       style="fill:#231f20;fill-opacity:1;fill-rule:nonzero;stroke:none" />
    <path
       d="M 380.47929,534.38631 C 380.56349,537.73177 382.23622,544.09151 393.19316,544.09151 C 399.13192,544.09151 405.74425,542.67137 405.74425,536.31163 C 405.74425,531.63023 401.22564,530.37288 394.86589,528.86855 L 388.42757,527.36421 C 378.72798,525.1021 369.35957,522.92979 369.35957,509.71074 C 369.35957,503.01982 372.95201,491.22651 392.441,491.22651 C 410.84664,491.22651 415.78063,503.27241 415.85922,510.6313 L 403.81893,510.6313 C 403.48214,507.95942 402.47738,501.59407 391.52043,501.59407 C 386.75484,501.59407 381.06868,503.35099 381.06868,508.79579 C 381.06868,513.47157 384.91371,514.47633 387.42281,515.06572 L 402.062,518.66377 C 410.25725,520.67329 417.78454,524.01875 417.78454,534.8073 C 417.78454,552.87615 399.38451,554.46468 394.11373,554.46468 C 372.19984,554.46468 368.43339,541.83501 368.43339,534.38631 L 380.47929,534.38631 z"
       id="path79"
       style="fill:#231f20;fill-opacity:1;fill-rule:nonzero;stroke:none" />
    <path
       d="M 423.97588,487.61723 L 423.97588,484.37842 L 427.04068,484.37842 C 427.4729,484.37842 427.8153,484.44017 428.07351,484.56927 C 428.55063,484.81625 428.79761,485.27653 428.79761,485.95011 C 428.79761,486.57879 428.61799,487.01662 428.27559,487.25237 C 427.93318,487.49935 427.46729,487.61723 426.8779,487.61723 L 423.97588,487.61723 z M 422.66801,492.79259 L 423.97588,492.79259 L 423.97588,488.68935 L 426.83861,488.68935 C 427.34941,488.68935 427.72549,488.75109 427.97247,488.86897 C 428.39346,489.07666 428.61799,489.49765 428.64606,490.12633 L 428.73025,491.72047 C 428.74148,492.09094 428.76393,492.34353 428.78639,492.47825 C 428.80884,492.60174 428.84252,492.714 428.88742,492.79259 L 430.47596,492.79259 L 430.47596,492.5849 C 430.27949,492.49509 430.13916,492.29863 430.06058,491.99552 C 430.01567,491.81589 429.98761,491.54085 429.97077,491.17038 L 429.93148,489.89618 C 429.90902,489.33487 429.80237,488.93633 429.61152,488.68935 C 429.42068,488.44237 429.14002,488.24591 428.76955,488.09435 C 429.19054,487.87544 429.52171,487.58355 429.76308,487.21869 C 429.99883,486.85384 430.11671,486.38233 430.11671,485.8154 C 430.11671,484.71521 429.67888,483.96866 428.79761,483.5589 C 428.33172,483.34559 427.74233,483.23894 427.02385,483.23894 L 422.66801,483.23894 L 422.66801,492.79259 z"
       id="path81"
       style="fill:#231f20;fill-opacity:1;fill-rule:nonzero;stroke:none" />
    <path
       d="M 418.44128,487.9035 C 418.52548,483.78342 421.80358,480.50532 425.87876,480.46603 C 429.89218,480.50532 433.17029,483.78342 433.31062,487.9035 C 433.17029,491.87203 429.89218,495.15013 425.87876,495.01541 C 421.80358,495.15013 418.52548,491.87203 418.44128,487.9035 z"
       id="path83"
       style="fill:none;stroke:#231f20;stroke-width:1.17876935;stroke-linecap:butt;stroke-linejoin:miter;stroke-miterlimit:3.86400008;stroke-dasharray:none;stroke-opacity:1" />
    <path
       d="M 20.370866,409.35817 L 20.370866,409.35817 z M -58.500031,396.09982 L 156.01915,396.11105"
       id="path85"
       style="fill:none;stroke:#231f20;stroke-width:1.02160013;stroke-linecap:butt;stroke-linejoin:miter;stroke-miterlimit:3.86400008;stroke-dasharray:none;stroke-opacity:1" />
    <path
       d="M -58.500031,440.07353 L -58.500031,396.09982"
       id="path87"
       style="fill:none;stroke:#231f20;stroke-width:2.44734955;stroke-linecap:butt;stroke-linejoin:miter;stroke-miterlimit:3.86400008;stroke-dasharray:none;stroke-opacity:1" />
    <path
       d="M 2.2290442,396.09982 L 2.1616859,442.33565 M 8.3698712,396.09982 L 8.3698712,440.07353 M 89.86774,396.09982 L 89.86774,440.07353 M 96.008567,396.41977 L 96.008567,442.33565"
       id="path89"
       style="fill:none;stroke:#231f20;stroke-width:1.42574954;stroke-linecap:butt;stroke-linejoin:miter;stroke-miterlimit:3.86400008;stroke-dasharray:none;stroke-opacity:1" />
    <path
       d="M -2.3400904,444.79422 L -2.3400904,442.33565 L 100.48789,442.33565 L 100.48789,444.76054 M -5.2477216,447.11247 L -5.2477216,444.92333 L 103.40114,444.92333 L 103.41797,447.51662 M -1.6833475,392.08639 L 99.853601,392.08639 C 99.853601,392.08639 99.466291,396.09982 96.29484,396.09982 C 93.117776,396.09421 5.5071456,396.09421 2.3244683,396.09421 C -1.4812728,396.09421 -1.6833475,392.08639 -1.6833475,392.08639 z M 155.62062,440.07353 L -58.152013,440.07353"
       id="path91"
       style="fill:none;stroke:#231f20;stroke-width:1.02160013;stroke-linecap:butt;stroke-linejoin:miter;stroke-miterlimit:3.86400008;stroke-dasharray:none;stroke-opacity:1" />
    <path
       d="M 103.19345,446.9553 L 158.43283,446.94407 L 158.41037,439.59641 L 155.55326,439.59641"
       id="path93"
       style="fill:none;stroke:#231f20;stroke-width:2.44734955;stroke-linecap:butt;stroke-linejoin:miter;stroke-miterlimit:3.86400008;stroke-dasharray:none;stroke-opacity:1" />
    <path
       d="M -5.141071,447.40997 L 103.33939,447.38752"
       id="path95"
       style="fill:none;stroke:#231f20;stroke-width:1.02160013;stroke-linecap:butt;stroke-linejoin:miter;stroke-miterlimit:3.86400008;stroke-dasharray:none;stroke-opacity:1" />
    <path
       d="M -58.112721,439.61886 L -60.790212,439.61886 L -60.762146,446.9553 L -5.1298446,446.93846"
       id="path97"
       style="fill:none;stroke:#231f20;stroke-width:2.44734955;stroke-linecap:butt;stroke-linejoin:miter;stroke-miterlimit:3.86400008;stroke-dasharray:none;stroke-opacity:1" />
    <path
       d="M 108.97503,434.57822 L 128.04864,434.57822 M 128.07109,410.6492 C 128.63803,410.42468 129.3509,410.59869 129.68769,410.00369 C 129.68769,410.00369 129.67647,406.46738 129.68769,405.47385 C 129.69331,404.48592 130.1592,404.02564 130.49038,403.64395 C 130.83278,403.26786 132.26976,402.24065 132.26976,402.24065 L 104.79321,402.24065 C 104.79321,402.24065 106.29193,403.55975 106.50523,403.83479 C 106.71292,404.10984 107.34159,404.61503 107.38088,405.47385 C 107.3865,406.29898 107.33037,409.35256 107.38088,410.00369 C 107.4314,410.65482 108.41932,410.42468 108.99748,410.6492 M 108.97503,440.07353 L 108.97503,404.82833 L 128.04864,404.82833 L 128.04864,440.07353 M 117.19835,420.02884 L 111.0912,420.02884 M 117.36675,426.16967 L 111.25398,426.16967 M 117.36675,413.8824 L 111.25398,413.8824 M 125.92686,420.02884 L 119.81971,420.02884 M 125.92686,426.16967 L 119.81971,426.16967 M 125.92686,413.8824 L 119.81971,413.8824 M 111.23714,407.55072 L 117.37797,407.55072 L 117.37797,432.44521 L 111.23714,432.44521 L 111.23714,407.55072 z M 119.96565,407.73596 L 125.78653,407.73596 L 125.78653,432.63606 L 119.96565,432.63606 L 119.96565,407.73596 z"
       id="path99"
       style="fill:none;stroke:#231f20;stroke-width:1.02160013;stroke-linecap:butt;stroke-linejoin:miter;stroke-miterlimit:3.86400008;stroke-dasharray:none;stroke-opacity:1" />
    <path
       d="M 32.590775,396.09982 L 32.590775,440.07353 M 36.795053,396.41977 L 36.795053,440.07353 M 61.39204,396.09982 L 61.39204,440.07353 M 65.590704,396.09982 L 65.590704,440.07353"
       id="path101"
       style="fill:none;stroke:#231f20;stroke-width:1.42574954;stroke-linecap:butt;stroke-linejoin:miter;stroke-miterlimit:3.86400008;stroke-dasharray:none;stroke-opacity:1" />
    <path
       d="M 34.667655,396.35242 L 30.278142,396.3468 C 30.278142,396.3468 30.261302,396.82392 30.603707,397.31788 C 30.946111,397.81184 32.220305,398.60892 32.220305,398.60892 L 34.499259,398.62014 L 34.499259,398.62576 L 34.667655,398.62576 L 34.841663,398.62576 L 34.841663,398.62014 L 37.120617,398.60892 C 37.120617,398.60892 38.394811,397.81184 38.737215,397.31788 C 39.07962,396.82392 39.06278,396.3468 39.06278,396.3468 L 34.667655,396.35242 z"
       id="path103"
       style="fill:#231f20;fill-opacity:1;fill-rule:evenodd;stroke:none" />
    <path
       d="M 34.667655,396.35242 L 30.278142,396.3468 C 30.278142,396.3468 30.261302,396.82392 30.603707,397.31788 C 30.946111,397.81184 32.220305,398.60892 32.220305,398.60892 L 34.499259,398.62014 L 34.499259,398.62576 L 34.667655,398.62576 L 34.841663,398.62576 L 34.841663,398.62014 L 37.120617,398.60892 C 37.120617,398.60892 38.394811,397.81184 38.737215,397.31788 C 39.07962,396.82392 39.06278,396.3468 39.06278,396.3468 L 34.667655,396.35242 z"
       id="path105"
       style="fill:none;stroke:#231f20;stroke-width:1.02160013;stroke-linecap:butt;stroke-linejoin:miter;stroke-miterlimit:3.86400008;stroke-dasharray:none;stroke-opacity:1" />
    <path
       d="M 63.502599,396.35242 L 59.090633,396.3468 C 59.090633,396.3468 59.073794,396.82392 59.416198,397.31788 C 59.758603,397.81184 61.049636,398.60892 61.049636,398.60892 L 63.32859,398.62014 L 63.32859,398.62576 L 63.502599,398.62576 L 63.670994,398.62576 L 63.670994,398.62014 L 65.949948,398.60892 C 65.949948,398.60892 67.224142,397.81184 67.566546,397.31788 C 67.908951,396.82392 67.886498,396.3468 67.886498,396.3468 L 63.502599,396.35242 z"
       id="path107"
       style="fill:#231f20;fill-opacity:1;fill-rule:evenodd;stroke:none" />
    <path
       d="M 63.502599,396.35242 L 59.090633,396.3468 C 59.090633,396.3468 59.073794,396.82392 59.416198,397.31788 C 59.758603,397.81184 61.049636,398.60892 61.049636,398.60892 L 63.32859,398.62014 L 63.32859,398.62576 L 63.502599,398.62576 L 63.670994,398.62576 L 63.670994,398.62014 L 65.949948,398.60892 C 65.949948,398.60892 67.224142,397.81184 67.566546,397.31788 C 67.908951,396.82392 67.886498,396.3468 67.886498,396.3468 L 63.502599,396.35242 z"
       id="path109"
       style="fill:none;stroke:#231f20;stroke-width:1.02160013;stroke-linecap:butt;stroke-linejoin:miter;stroke-miterlimit:3.86400008;stroke-dasharray:none;stroke-opacity:1" />
    <path
       d="M 59.270255,438.13698 L 67.532867,438.13698 L 67.532867,439.75358 L 59.270255,439.75358 L 59.270255,438.13698 z"
       id="path111"
       style="fill:#231f20;fill-opacity:1;fill-rule:nonzero;stroke:none" />
    <path
       d="M 59.270255,438.13698 L 67.53848,438.13698 L 67.53848,439.75358 L 59.270255,439.75358 L 59.270255,438.13698 z"
       id="path113"
       style="fill:none;stroke:#231f20;stroke-width:1.02160013;stroke-linecap:butt;stroke-linejoin:miter;stroke-miterlimit:3.86400008;stroke-dasharray:none;stroke-opacity:1" />
    <path
       d="M 30.671065,438.13698 L 38.916837,438.13698 L 38.916837,439.75358 L 30.671065,439.75358 L 30.671065,438.13698 z"
       id="path115"
       style="fill:#231f20;fill-opacity:1;fill-rule:nonzero;stroke:none" />
    <path
       d="M 30.671065,438.13698 L 38.911224,438.13698 L 38.911224,439.75358 L 30.671065,439.75358 L 30.671065,438.13698 z"
       id="path117"
       style="fill:none;stroke:#231f20;stroke-width:1.02160013;stroke-linecap:butt;stroke-linejoin:miter;stroke-miterlimit:3.86400008;stroke-dasharray:none;stroke-opacity:1" />
    <path
       d="M 87.639305,356.47072 L 81.498478,356.47072 L 81.498478,362.14004 L 87.639305,362.14004 L 87.639305,356.47072 z M 16.469701,356.47072 L 10.328874,356.47072 L 10.328874,362.14004 L 16.469701,362.14004 L 16.469701,356.47072 z"
       id="path119"
       style="fill:none;stroke:#231f20;stroke-width:1.02160013;stroke-linecap:butt;stroke-linejoin:miter;stroke-miterlimit:3.86400008;stroke-dasharray:none;stroke-opacity:1" />
    <path
       d="M 155.84515,440.07353 L 155.84515,395.7518"
       id="path121"
       style="fill:none;stroke:#231f20;stroke-width:2.44734955;stroke-linecap:butt;stroke-linejoin:miter;stroke-miterlimit:3.86400008;stroke-dasharray:none;stroke-opacity:1" />
    <path
       d="M 20.696431,409.45921 L 20.696431,409.45921 z M 77.950943,409.45921 L 77.950943,409.45921 z M 15.60527,409.45921 C 15.72876,406.80978 17.805639,404.7329 20.455064,404.6038 C 22.936093,404.7329 25.012972,406.80978 24.979293,409.45921 M 20.292281,409.45921 L 20.292281,401.05065 M 26.438722,403.63833 L 23.851042,406.2204 M 14.796971,403.63833 L 17.38465,406.2204 M 30.60932,409.43114 C 30.547575,403.75621 26.023346,399.23198 20.264215,399.14217 C 14.926074,399.23198 10.457977,403.84041 10.306421,409.40308 M 20.292281,401.05065 C 15.913995,401.12362 12.338395,404.89569 12.209291,409.45921 L 28.700836,409.45921 C 28.644704,404.89569 24.979293,401.12362 20.292281,401.05065 z M 12.209291,411.72132 L 19.3212,411.72132 L 19.3212,432.41153 L 12.209291,432.41153 L 12.209291,411.72132 z M 12.209291,422.06643 L 19.3212,422.06643 M 12.209291,416.89107 L 19.3212,416.89107 M 12.209291,426.59627 L 19.3212,426.59627 M 15.768052,411.72132 L 15.768052,432.41153 M 21.588928,411.72132 L 28.700836,411.72132 L 28.700836,432.41153 L 21.588928,432.41153 L 21.588928,411.72132 z M 21.588928,422.06643 L 28.700836,422.06643 M 21.588928,416.89107 L 28.700836,416.89107 M 21.588928,426.59627 L 28.700836,426.59627 M 25.142075,411.72132 L 25.142075,432.41153 M 10.300808,440.17457 L 10.300808,409.13364 M 30.620546,440.17457 L 30.620546,409.13364 M 73.022565,409.45921 C 73.140441,406.80978 75.222934,404.7329 77.866745,404.6038 C 80.347774,404.7329 82.424654,406.80978 82.390974,409.45921 M 77.709576,409.45921 L 77.709576,401.05065 M 83.687621,403.63833 L 81.105554,406.2204 M 72.051483,403.63833 L 74.639162,406.2204 M 87.858219,409.43114 C 87.790861,403.75621 83.277858,399.23198 77.513114,399.14217 C 72.174973,399.23198 67.712489,403.84041 67.55532,409.40308 M 77.546794,401.05065 C 73.168507,401.12362 69.592907,404.89569 69.469417,409.45921 L 85.949735,409.45921 C 85.899217,404.89569 82.228192,401.12362 77.546794,401.05065 z M 69.463804,411.72132 L 76.575712,411.72132 L 76.575712,432.41153 L 69.463804,432.41153 L 69.463804,411.72132 z M 69.463804,422.06643 L 76.575712,422.06643 M 69.463804,416.89107 L 76.575712,416.89107 M 69.463804,426.59627 L 76.575712,426.59627 M 73.022565,411.72132 L 73.022565,432.41153 M 78.837827,411.72132 L 85.949735,411.72132 L 85.949735,432.41153 L 78.837827,432.41153 L 78.837827,411.72132 z M 78.837827,422.06643 L 85.949735,422.06643 M 78.837827,416.89107 L 85.949735,416.89107 M 78.837827,426.59627 L 85.949735,426.59627 M 82.390974,411.72132 L 82.390974,432.41153 M 67.55532,440.17457 L 67.55532,409.13364 M 87.869445,440.17457 L 87.869445,409.13364 M -31.023478,434.67926 L -11.949867,434.67926 M -11.949867,410.75024 C -11.377322,410.52571 -10.664447,410.69972 -10.333269,410.10472 C -10.333269,410.10472 -10.344496,406.5628 -10.333269,405.57488 C -10.322043,404.58696 -9.8617617,404.12107 -9.5249704,403.74498 C -9.1881792,403.3689 -7.7512032,402.34169 -7.7512032,402.34169 L -35.227756,402.34169 C -35.227756,402.34169 -33.729035,403.66079 -33.515734,403.93583 C -33.302433,404.21088 -32.673756,404.71045 -32.640076,405.57488 C -32.634463,406.40002 -32.690595,409.44798 -32.640076,410.10472 C -32.589558,410.75585 -31.601637,410.52571 -31.023478,410.75024 M -31.023478,440.17457 L -31.023478,404.92937 L -11.949867,404.92937 L -11.949867,440.17457 M -22.637376,420.12988 L -28.744524,420.12988 M -22.637376,426.2707 L -28.744524,426.2707 M -22.637376,413.98344 L -28.744524,413.98344 M -14.228822,420.12988 L -20.335969,420.12988 M -14.228822,426.2707 L -20.335969,426.2707 M -14.228822,413.98344 L -20.335969,413.98344 M -28.761364,407.837 L -22.620537,407.837 L -22.620537,432.7371 L -28.761364,432.7371 L -28.761364,407.837 z M -20.352809,407.837 L -14.217595,407.837 L -14.217595,432.7371 L -20.352809,432.7371 L -20.352809,407.837 z M 44.384082,409.45921 C 44.507572,406.80978 46.584452,404.7329 49.233876,404.6038 C 51.709292,404.7329 53.791784,406.80978 53.758105,409.45921 M 49.071094,409.45921 L 49.071094,401.05065 M 54.891969,403.63833 L 52.30429,406.2204 M 43.250218,403.63833 L 45.837898,406.2204 M 49.312461,409.45921 L 49.312461,409.45921 z M 59.236576,409.43114 C 59.169218,403.75621 54.644989,399.23198 48.880245,399.14217 C 43.542104,399.23198 39.074007,403.84041 38.916837,409.40308 M 48.908311,401.05065 C 44.530025,401.12362 40.954424,404.89569 40.825321,409.45921 L 57.316866,409.45921 C 57.260734,404.89569 53.589709,401.12362 48.908311,401.05065 z M 38.911224,440.17457 L 38.911224,409.13364 M 59.242189,440.17457 L 59.242189,409.13364 M 40.825321,411.72132 L 47.93723,411.72132 L 47.948456,432.47889 L 40.825321,432.41153 L 40.825321,411.72132 z M 40.825321,422.06643 L 47.93723,422.06643 M 40.825321,416.89107 L 47.93723,416.89107 M 40.825321,426.59627 L 47.93723,426.59627 M 44.384082,411.72132 L 44.384082,432.41153 M 50.199344,411.72132 L 57.316866,411.72132 L 57.316866,432.41153 L 50.199344,432.41153 L 50.199344,411.72132 z M 50.199344,422.06643 L 57.316866,422.06643 M 50.199344,416.89107 L 57.316866,416.89107 M 50.199344,426.59627 L 57.316866,426.59627 M 53.758105,411.72132 L 53.758105,432.41153 M 47.948456,432.28243 L 47.948456,439.98933 M 50.238637,432.28243 L 50.238637,439.98933"
       id="path123"
       style="fill:none;stroke:#231f20;stroke-width:1.02160013;stroke-linecap:butt;stroke-linejoin:miter;stroke-miterlimit:3.86400008;stroke-dasharray:none;stroke-opacity:1" />
    <path
       d="M 50.8617,376.53225 L 50.856087,376.53225 L 50.8617,376.53225 C 51.417406,377.13847 51.698065,377.8738 51.698065,378.23866 C 51.698065,378.27795 45.871577,378.23866 45.871577,378.23866 C 45.871577,377.90187 46.180302,377.11602 46.786526,376.48734 L 46.820205,376.53225 L 46.786526,376.48734 C 47.263647,375.97654 47.93723,375.56117 48.801661,375.56117 C 48.801661,375.56117 48.812887,375.56678 48.8185,375.56678 L 48.8185,378.0871 L 48.8185,375.56678 C 49.699771,375.5724 50.384579,376.00461 50.8617,376.53225 z M 56.37385,378.27795 L 41.49329,378.27795 C 41.49329,377.30126 42.380174,374.93811 44.193234,373.24292 L 46.786526,376.48734 C 46.180302,377.11602 45.871577,377.90187 45.871577,378.23866 C 45.871577,378.23866 51.698065,378.27795 51.698065,378.23866 C 51.698065,377.8738 51.417406,377.13847 50.8617,376.53225 L 53.454993,373.24292 C 55.374703,374.96617 56.37385,377.37423 56.37385,378.27795 z"
       id="path125"
       style="fill:none;stroke:#231f20;stroke-width:1.02160013;stroke-linecap:butt;stroke-linejoin:miter;stroke-miterlimit:4;stroke-dasharray:none;stroke-opacity:1" />
    <path
       d="M 48.829727,370.22864 C 53.640228,370.34652 57.591912,374.2982 57.55262,379.28271 L 40.095607,379.28271 C 39.938438,374.2982 43.890122,370.34652 48.829727,370.22864 M 99.281055,359.23802 L 87.639305,359.23802 L 87.639305,362.14565 L 81.498478,362.14565 L 81.498478,359.23802 L 16.492154,359.23802 L 16.492154,362.14565 L 10.351326,362.14565 L 10.351326,359.23802 L -0.96485952,359.23802 L -62.704308,389.95338 C -62.367517,391.1546 -61.592897,392.27724 -61.08771,392.93398 C -61.08771,392.97328 159.20183,392.92276 159.20183,392.92276 C 159.20183,392.92276 159.96523,391.86187 160.39744,391.07041 C 160.83527,390.27333 160.86895,389.82428 160.86895,389.82428 L 99.281055,359.23802 z M 93.033578,371.5309 C 93.359143,371.5309 93.622963,371.78911 93.622963,372.11467 C 93.622963,372.44024 93.359143,372.70406 93.033578,372.70406 C 92.708013,372.70406 92.444193,372.44024 92.444193,372.11467 C 92.444193,371.78911 92.708013,371.5309 93.033578,371.5309 M 89.598307,374.05683 C 89.88458,373.70882 90.720945,374.09051 90.951085,374.07367 C 91.181226,374.05122 91.961459,373.66391 92.185987,373.5292 C 92.410514,373.39448 92.713626,373.10821 93.033578,373.09137 C 93.359143,373.08014 93.645415,373.24292 93.898009,373.50113 C 94.156215,373.75372 94.880317,374.04 95.211495,374.06245 C 95.537059,374.0849 96.233095,373.79301 96.452009,374.0849 C 96.68215,374.3824 96.165736,374.85391 95.941209,375.03353 C 95.722295,375.21876 95.295692,375.45452 95.11607,375.74079 C 94.936448,376.03268 94.835411,378.32286 94.655789,378.59229 C 94.470554,378.85611 93.516312,379.22658 93.033578,379.23781 C 92.56207,379.24903 91.574149,378.82243 91.422593,378.59229 C 91.265424,378.36215 91.231745,375.90357 90.990378,375.67905 C 90.754624,375.45452 90.305569,375.21876 90.11472,375.05037 C 89.912646,374.88759 89.312035,374.40485 89.598307,374.05683 M 93.942914,380.52884 C 93.942914,381.02841 93.538765,381.43256 93.039191,381.43256 C 92.539617,381.43256 92.135468,381.02841 92.135468,380.52884 C 92.135468,380.02927 92.539617,379.62512 93.039191,379.62512 C 93.538765,379.62512 93.942914,380.02927 93.942914,380.52884 M 68.548854,382.06124 C 69.205597,382.0444 86.280913,382.06685 86.960109,382.06685 C 87.644918,382.06685 87.942417,382.41487 87.942417,382.88638 C 87.942417,383.3635 87.571946,383.67784 86.971335,383.67784 C 86.370724,383.67784 69.21121,383.67222 68.548854,383.67784 C 67.892111,383.68906 67.583386,383.32982 67.577773,382.86954 C 67.572159,382.40364 67.892111,382.08369 68.548854,382.06124 M 89.345714,389.02159 L 66.056599,389.02159 L 66.056599,384.49175 L 89.345714,384.49175 L 89.345714,389.02159 z M 60.802655,382.05563 C 61.341521,382.05563 65.360564,382.0444 65.905043,382.0444 C 66.443909,382.0444 66.690889,382.43732 66.690889,382.86954 C 66.690889,383.29614 66.399003,383.67784 65.910656,383.67784 C 65.427922,383.67784 61.274163,383.68906 60.780203,383.68906 C 60.286242,383.68906 59.99997,383.29614 59.99997,382.85831 C 59.99997,382.41487 60.263789,382.05563 60.802655,382.05563 M 65.023772,389.02159 L 61.77935,389.02159 L 61.77935,384.49175 L 65.023772,384.49175 L 65.023772,389.02159 z M 60.74091,384.49175 L 60.74091,389.02159 L 49.076707,389.02159 L 37.429343,389.02159 L 37.429343,384.49175 L 49.076707,384.49175 L 60.74091,384.49175 z M 39.887919,382.06124 C 40.544662,382.0444 57.625591,382.06685 58.316013,382.06685 C 59.000822,382.06685 59.298321,382.41487 59.298321,382.88638 C 59.298321,383.3635 58.927851,383.67784 58.321627,383.67784 C 57.721015,383.67784 40.550275,383.67222 39.887919,383.67784 C 39.231176,383.68906 38.922451,383.32982 38.911224,382.86954 C 38.911224,382.40364 39.231176,382.08369 39.887919,382.06124 M 32.147333,382.05563 C 32.680586,382.05563 36.699628,382.0444 37.238494,382.0444 C 37.788587,382.0444 38.029954,382.43732 38.029954,382.86954 C 38.029954,383.29614 37.732455,383.67784 37.249721,383.67784 C 36.766987,383.67784 32.613228,383.68906 32.124881,383.68906 C 31.63092,383.68906 31.344648,383.29614 31.344648,382.85831 C 31.344648,382.41487 31.614081,382.05563 32.147333,382.05563 M 36.390903,389.02159 L 33.140868,389.02159 L 33.140868,384.49175 L 36.390903,384.49175 L 36.390903,389.02159 z M 32.113654,389.02159 L 8.8189262,389.02159 L 8.8189262,384.49175 L 32.113654,384.49175 L 32.113654,389.02159 z M 11.243823,382.06124 C 11.900566,382.0444 28.981496,382.06685 29.666304,382.06685 C 30.351113,382.06685 30.642999,382.41487 30.642999,382.88638 C 30.642999,383.3635 30.278142,383.67784 29.677531,383.67784 C 29.07692,383.67784 11.906179,383.67222 11.243823,383.67784 C 10.58708,383.68906 10.278355,383.32982 10.272742,382.86954 C 10.267129,382.40364 10.58708,382.08369 11.243823,382.06124 M 5.1928071,371.5309 C 5.518372,371.5309 5.7765786,371.78911 5.7765786,372.11467 C 5.7765786,372.44024 5.518372,372.70406 5.1928071,372.70406 C 4.8672423,372.70406 4.6034225,372.44024 4.6034225,372.11467 C 4.6034225,371.78911 4.8672423,371.5309 5.1928071,371.5309 M 1.7575364,374.05683 C 2.043809,373.70882 2.8801739,374.09051 3.1103146,374.07367 C 3.3404553,374.05122 4.1206883,373.66391 4.3396026,373.5292 C 4.5697433,373.39448 4.8728554,373.10821 5.1928071,373.09137 C 5.518372,373.08014 5.7990314,373.24292 6.057238,373.50113 C 6.3154446,373.75372 7.0395458,374.04 7.3707239,374.06245 C 7.6962887,374.0849 8.3867108,373.79301 8.6168515,374.0849 C 8.8357658,374.3824 8.3249657,374.85391 8.1004382,375.03353 C 7.8815239,375.21876 7.4549217,375.45452 7.2752997,375.74079 C 7.0956777,376.03268 6.9946403,378.32286 6.8094051,378.59229 C 6.6297831,378.85611 5.6699281,379.22658 5.1928071,379.23781 C 4.7212994,379.24903 3.7333784,378.82243 3.5762091,378.59229 C 3.4246531,378.36215 3.3853608,375.90357 3.1496069,375.67905 C 2.913853,375.45452 2.4591848,375.21876 2.2683365,375.05037 C 2.0718749,374.88759 1.4712638,374.40485 1.7575364,374.05683 M 6.0965303,380.52884 C 6.0965303,381.02841 5.697994,381.43256 5.1984203,381.43256 C 4.6988466,381.43256 4.2946971,381.02841 4.2946971,380.52884 C 4.2946971,380.02927 4.6988466,379.62512 5.1984203,379.62512 C 5.697994,379.62512 6.0965303,380.02927 6.0965303,380.52884 M 1.8978661,382.05563 C 2.5714486,382.05563 7.6177041,382.0444 8.302513,382.0444 C 8.9873219,382.0444 9.290434,382.43732 9.290434,382.86954 C 9.290434,383.29614 8.9255768,383.67784 8.3137394,383.67784 C 7.7019019,383.67784 2.4872508,383.68906 1.864187,383.68906 C 1.2411232,383.68906 0.88187916,383.29614 0.88187916,382.85831 C 0.88187916,382.41487 1.2242836,382.05563 1.8978661,382.05563 M 7.763647,389.02159 L 2.6051277,389.02159 L 2.6051277,384.49175 L 7.763647,384.49175 L 7.763647,389.02159 z M 8.3137394,391.44649 C 7.7019019,391.44649 2.4872508,391.45772 1.864187,391.45772 C 1.2411232,391.45772 0.88187916,391.07041 0.88187916,390.62696 C 0.88187916,390.18352 1.2242836,389.82428 1.8978661,389.82428 C 2.5714486,389.82428 7.6177041,389.81867 8.302513,389.81867 C 8.9873219,389.81867 9.290434,390.20598 9.290434,390.63819 C 9.290434,391.07041 8.9255768,391.44649 8.3137394,391.44649 M 29.677531,391.44649 C 29.07692,391.44649 11.906179,391.44088 11.243823,391.44649 C 10.58708,391.45772 10.278355,391.09847 10.272742,390.63819 C 10.267129,390.1723 10.58708,389.85234 11.243823,389.8355 C 11.900566,389.81867 28.981496,389.8355 29.666304,389.8355 C 30.351113,389.8355 30.642999,390.18352 30.642999,390.65503 C 30.642999,391.13215 30.278142,391.44649 29.677531,391.44649 M 37.249721,391.44649 C 36.766987,391.44649 32.613228,391.45772 32.124881,391.45772 C 31.63092,391.45772 31.344648,391.07041 31.344648,390.62696 C 31.344648,390.18352 31.614081,389.82428 32.147333,389.82428 C 32.680586,389.82428 36.699628,389.81867 37.238494,389.81867 C 37.788587,389.81867 38.029954,390.20598 38.029954,390.63819 C 38.029954,391.07041 37.732455,391.44649 37.249721,391.44649 M 58.321627,391.44649 C 57.721015,391.44649 40.550275,391.44088 39.887919,391.44649 C 39.231176,391.45772 38.922451,391.09847 38.911224,390.63819 C 38.911224,390.1723 39.231176,389.85234 39.887919,389.8355 C 40.544662,389.81867 57.625591,389.8355 58.316013,389.8355 C 59.000822,389.8355 59.298321,390.18352 59.298321,390.65503 C 59.298321,391.13215 58.927851,391.44649 58.321627,391.44649 M 65.910656,391.44649 C 65.427922,391.44649 61.274163,391.45772 60.780203,391.45772 C 60.286242,391.45772 59.99997,391.07041 59.99997,390.62696 C 59.99997,390.18352 60.263789,389.82428 60.802655,389.82428 C 61.341521,389.82428 65.360564,389.81867 65.905043,389.81867 C 66.443909,389.81867 66.690889,390.20598 66.690889,390.63819 C 66.690889,391.07041 66.399003,391.44649 65.910656,391.44649 M 86.971335,391.44649 C 86.370724,391.44649 69.21121,391.44088 68.548854,391.44649 C 67.892111,391.45772 67.583386,391.09847 67.577773,390.63819 C 67.572159,390.1723 67.892111,389.85234 68.548854,389.8355 C 69.205597,389.81867 86.280913,389.8355 86.960109,389.8355 C 87.644918,389.8355 87.942417,390.18352 87.942417,390.65503 C 87.942417,391.13215 87.571946,391.44649 86.971335,391.44649 M 96.15451,391.31739 C 95.542673,391.31739 90.328021,391.32861 89.704958,391.32861 C 89.087507,391.32861 88.728263,390.93569 88.728263,390.49786 C 88.728263,390.05442 89.065054,389.69518 89.738637,389.69518 C 90.412219,389.69518 95.464088,389.68395 96.143284,389.68395 C 96.828093,389.68395 97.131205,390.07687 97.131205,390.50347 C 97.131205,390.93569 96.766347,391.31739 96.15451,391.31739 M 90.400993,384.49175 L 95.559512,384.49175 L 95.559512,389.02159 L 90.400993,389.02159 L 90.400993,384.49175 z M 96.15451,383.67784 C 95.542673,383.67784 90.328021,383.68906 89.704958,383.68906 C 89.087507,383.68906 88.728263,383.29614 88.728263,382.85831 C 88.728263,382.41487 89.065054,382.05563 89.738637,382.05563 C 90.412219,382.05563 95.464088,382.0444 96.143284,382.0444 C 96.828093,382.0444 97.131205,382.43732 97.131205,382.86954 C 97.131205,383.29614 96.766347,383.67784 96.15451,383.67784"
       id="path127"
       style="fill:#000000;fill-opacity:1;fill-rule:nonzero;stroke:none" />
    <path
       d="M 48.8185,375.56678 L 48.8185,371.35689 C 50.710144,371.3625 52.264997,372.16519 53.454993,373.24292 L 50.8617,376.53225 C 50.384579,376.00461 49.699771,375.5724 48.8185,375.56678 z M 46.786526,376.48734 L 44.193234,373.24292 C 45.343937,372.16519 46.870724,371.35128 48.801661,371.35128 C 48.801661,371.35128 48.812887,371.35689 48.8185,371.35689 L 48.8185,375.56678 C 48.812887,375.56678 48.801661,375.56117 48.801661,375.56117 C 47.93723,375.56117 47.263647,375.97654 46.786526,376.48734 z"
       id="path129"
       style="fill:none;stroke:#231f20;stroke-width:1.02160013;stroke-linecap:butt;stroke-linejoin:miter;stroke-miterlimit:3.86400008;stroke-dasharray:none;stroke-opacity:1" />
    <path
       d="M 159.81367,390.22843 C 159.05028,392.46809 156.23807,395.80232 155.5701,396.37487 M -61.778133,390.10494 C -61.177521,391.97413 -58.702106,395.84162 -58.118334,396.48152"
       id="path131"
       style="fill:none;stroke:#231f20;stroke-width:2.44734955;stroke-linecap:butt;stroke-linejoin:miter;stroke-miterlimit:3.86400008;stroke-dasharray:none;stroke-opacity:1" />
  </g>
</svg>
