<svg id="Horizontal-Coloured" xmlns="http://www.w3.org/2000/svg" viewBox="0 0 1175.03 255.26"><defs><style>.cls-1{fill:#e9501d;}.cls-2{fill:#173a5c;}</style></defs><g id="Schriftzug"><g id="Selfstorage"><polygon class="cls-1" points="461.58 178.91 466.5 178.91 466.5 211.74 461.58 211.74 461.58 218.74 479.8 218.74 479.8 211.74 474.62 211.74 474.62 197.97 488.58 197.97 488.58 190.99 474.62 190.99 474.62 178.91 488.98 178.91 488.98 186.48 496.25 186.48 496.25 171.93 461.58 171.93 461.58 178.91"/><polygon class="cls-1" points="367.98 178.91 372.89 178.91 372.89 211.74 367.98 211.74 367.98 218.74 404.5 218.74 404.5 203.16 397.47 203.16 397.47 211.74 380.96 211.74 380.96 198.13 396.67 198.13 396.67 190.99 380.96 190.99 380.96 178.91 397.47 178.91 397.47 186.6 404.5 186.6 404.5 171.93 367.98 171.93 367.98 178.91"/><path class="cls-1" d="M348.49,193.69a29.89,29.89,0,0,0-3.92-1.86q-2.31-.92-5.26-2c-1.95-.71-3.14-1.17-3.55-1.33a6.34,6.34,0,0,1-2.4-1.93,5,5,0,0,1-.69-2.78,5.28,5.28,0,0,1,1.69-4,6.32,6.32,0,0,1,4.51-1.64,8.12,8.12,0,0,1,4.13,1.12,15.66,15.66,0,0,1,3.9,3.63v3.42h7.27V172H346.9v1.88a13,13,0,0,0-7.95-2.75,14.73,14.73,0,0,0-6.91,1.74,13.79,13.79,0,0,0-5.15,4.91,13.32,13.32,0,0,0-2,7.1,12,12,0,0,0,.77,4.43,10.26,10.26,0,0,0,2.42,3.59,16.72,16.72,0,0,0,4.06,2.8A20.05,20.05,0,0,0,335,197l5.1,1.89c2.89,1.11,3.92,1.56,4.3,1.77a6.85,6.85,0,0,1,2.67,2.19,5.89,5.89,0,0,1,.77,3.18,6.19,6.19,0,0,1-1.86,4.53,6.41,6.41,0,0,1-4.55,1.89c-3.84,0-6.94-1.84-9.29-5.77v-5H325v17.07l7.13.07v-2.22a12.88,12.88,0,0,0,8.53,3.22h.25A15.14,15.14,0,0,0,348,218a14.54,14.54,0,0,0,5.51-5,13.32,13.32,0,0,0,2.11-7.35,12.65,12.65,0,0,0-2-7.16A15.59,15.59,0,0,0,348.49,193.69Z"/><polygon class="cls-1" points="550.14 190.81 557.32 190.81 557.32 178.91 564.49 178.91 564.49 211.74 559.61 211.74 559.61 218.74 577.62 218.74 577.62 211.74 572.72 211.74 572.72 178.91 579.86 178.91 579.86 190.81 587.02 190.81 587.02 171.93 550.14 171.93 550.14 190.81"/><polygon class="cls-1" points="441.98 211.74 429.82 211.74 429.82 178.91 434.81 178.91 434.81 171.93 416.82 171.93 416.82 178.91 421.71 178.91 421.71 211.74 416.82 211.74 416.82 218.74 449.18 218.74 449.18 196.12 441.98 196.12 441.98 211.74"/><path class="cls-1" d="M531.92,193.7a28.48,28.48,0,0,0-3.83-1.91c-1.54-.62-3.29-1.28-5.26-2s-3.15-1.17-3.55-1.33a6.1,6.1,0,0,1-2.4-1.93,5,5,0,0,1-.69-2.78,5.28,5.28,0,0,1,1.69-4,6.26,6.26,0,0,1,4.5-1.64h.06a7.94,7.94,0,0,1,4.07,1.12,15.45,15.45,0,0,1,3.89,3.63v3.42h7.29V172H530.4v1.87a12.94,12.94,0,0,0-7.92-2.74h-.17a14,14,0,0,0-6.74,1.73,13.45,13.45,0,0,0-5.16,4.91,13.29,13.29,0,0,0-2,7.1,12.22,12.22,0,0,0,.76,4.43,10.3,10.3,0,0,0,2.43,3.58,16.38,16.38,0,0,0,4.06,2.81,20.05,20.05,0,0,0,2.79,1.27l5,1.93c2.9,1.11,3.93,1.56,4.31,1.77a6.85,6.85,0,0,1,2.67,2.19,5.79,5.79,0,0,1,.76,3.18,6.08,6.08,0,0,1-1.86,4.53,6.54,6.54,0,0,1-4.66,1.83c-3.83,0-6.83-1.89-9.15-5.76v-5h-7.12v17.07l7,.07v-2.22a12.88,12.88,0,0,0,8.53,3.22h.25a15.18,15.18,0,0,0,7.08-1.76,14.46,14.46,0,0,0,5.49-5,13.15,13.15,0,0,0,2.12-7.36,12.64,12.64,0,0,0-2-7.16A15.65,15.65,0,0,0,531.92,193.7Z"/><path class="cls-1" d="M788,201.89h8.09a12.53,12.53,0,0,1-4.21,7.29,14.39,14.39,0,0,1-9.27,2.83,15.28,15.28,0,0,1-8-2,13.44,13.44,0,0,1-5.29-5.76,19.06,19.06,0,0,1-1.91-8.7,22.35,22.35,0,0,1,1.06-7,16,16,0,0,1,2.94-5.47,13.08,13.08,0,0,1,4.54-3.47,15.23,15.23,0,0,1,13.9,1,15.67,15.67,0,0,1,5.31,6.48l.18.41h6.73V171.74H795v3.88a19.58,19.58,0,0,0-5.45-3.37,21.27,21.27,0,0,0-7.84-1.4,21.79,21.79,0,0,0-9.12,1.84,20.89,20.89,0,0,0-7.25,5.23,23.44,23.44,0,0,0-4.67,8,29.9,29.9,0,0,0-1.62,10,26.73,26.73,0,0,0,1.65,9.54A21.15,21.15,0,0,0,772.83,218a24.45,24.45,0,0,0,9,1.72h.28a26.09,26.09,0,0,0,9-1.59,21.25,21.25,0,0,0,7.24-4.52,20.1,20.1,0,0,0,4.73-7l.37-.84.21-.49a12,12,0,0,0,.47-1.73c.15-.76.29-1.83.42-3.18s.19-3.14.19-5.19v-.68l-16.75,0Z"/><polygon class="cls-1" points="846.76 203.16 846.76 211.74 830.2 211.74 830.2 198.13 845.91 198.13 845.91 190.99 830.2 190.99 830.2 178.91 846.71 178.91 846.71 186.6 853.74 186.6 853.74 171.93 817.22 171.93 817.22 178.91 822.12 178.91 822.12 211.74 817.22 211.74 817.22 218.74 853.79 218.74 853.79 203.16 846.76 203.16"/><path class="cls-1" d="M637.6,177.86a21.87,21.87,0,0,0-7-5l-.42-.23A23.21,23.21,0,0,0,621,170.9a22.78,22.78,0,0,0-11.83,3.17,21.62,21.62,0,0,0-8.25,8.81A27,27,0,0,0,598,195.57a25.7,25.7,0,0,0,2.94,12.28,22,22,0,0,0,8.21,8.7,22.49,22.49,0,0,0,11.43,3.14h.66a23.1,23.1,0,0,0,11.6-3.13,22.08,22.08,0,0,0,8.29-8.67,25.84,25.84,0,0,0,3-12.48,27.23,27.23,0,0,0-1.69-9.7A23.3,23.3,0,0,0,637.6,177.86Zm-2.17,17.53a19,19,0,0,1-1.91,8.67A13.64,13.64,0,0,1,620.75,212a12.59,12.59,0,0,1-7.58-2.33,14.19,14.19,0,0,1-4.78-6.1,20.12,20.12,0,0,1-1.63-8.1,21.76,21.76,0,0,1,.93-6.31,17,17,0,0,1,2.74-5.47,12.71,12.71,0,0,1,4.52-3.75h0a13,13,0,0,1,5.87-1.41H621a12.93,12.93,0,0,1,7.39,2.16,14.39,14.39,0,0,1,5.16,6A19.68,19.68,0,0,1,635.43,195.39Z"/><path class="cls-1" d="M735.66,178.91h5v-7H716.32v7h5.25l-11.75,32.83h-4.7v7h18.1v-7h-5l2.89-9h14.17l2.87,9H733v7h18.62v-7H746.8Zm-7.39,1.83,4.76,15h-9.55Z"/><path class="cls-1" d="M682,196.44a18.65,18.65,0,0,0,4.43-2.4,9.69,9.69,0,0,0,3-3.82,12.77,12.77,0,0,0,.95-5.1c0-4.86-1.62-8.53-4.78-10.88-1.89-1.56-4.88-2.31-9.16-2.31H656.34v7h4.93v32.83h-4.93v7l18,0v-7h-5V197.57H674l9.57,21.13h10.4v-7H689Zm-1.39-7.39a7.51,7.51,0,0,1-5,1.53h-6.28l0-11.7h6.14a7.69,7.69,0,0,1,5.15,1.42,5.77,5.77,0,0,1,1.63,4.59A5.21,5.21,0,0,1,680.63,189.05Z"/></g><g id="Lagerlöwe"><path class="cls-2" d="M464.56,71h10.78V55.43H420V71H430.7l-15.53,52.66H404.81v15.6h37.93v-15.6H432l3.87-12.4H456l3.47,12.4H449.27v15.6h42v-15.6h-10ZM452.22,97.57H440.06l6.26-21.12Z"/><path class="cls-2" d="M904.34,35.64h0a9.32,9.32,0,0,0-13.2,0,9.44,9.44,0,0,0,6.49,16.19h.11a9.44,9.44,0,0,0,6.75-16l-.11-.11Z"/><path class="cls-2" d="M917.84,48.86a9,9,0,0,0,6.5,2.81h.23a9.19,9.19,0,0,0,6.52-2.74,9.43,9.43,0,0,0-13.24-13.42,9.34,9.34,0,0,0-.13,13.23Z"/><path class="cls-2" d="M548.27,96v15.6H562.5a18.3,18.3,0,0,1-6.22,8.67c-3,2.23-7,3.36-11.79,3.36-7.24,0-13-2.5-17.14-7.43s-6.28-11.89-6.27-20.58A29.68,29.68,0,0,1,524,82.24a20.63,20.63,0,0,1,8-8.81,24.09,24.09,0,0,1,25.42,1,22.51,22.51,0,0,1,8.45,11.16l.19.54h15.37V55.47h-15.6v5.8c-6.09-4.75-14.41-7.16-24.75-7.16a47,47,0,0,0-22.79,5.46,40.57,40.57,0,0,0-15.93,15.31,42.7,42.7,0,0,0-5.81,22.27c0,8.82,1.92,16.57,5.72,23a37.4,37.4,0,0,0,16.4,14.92c7,3.42,15.37,5.15,24.76,5.15s17.52-1.71,24.15-5.08a35.84,35.84,0,0,0,15.59-15c3.6-6.46,5.42-14.33,5.42-23.39V96Z"/><polygon class="cls-2" points="382.05 123.69 359.38 123.69 359.38 71.03 371.44 71.03 371.44 55.43 324.63 55.43 324.63 71.03 336.35 71.03 336.35 123.69 324.63 123.69 324.63 139.29 399.74 139.29 399.74 98.33 382.05 98.33 382.05 123.69"/><polygon class="cls-2" points="1046.01 71 1053.98 71 1042.07 107.12 1029.74 71 1037 71 1037 55.4 1005.86 55.4 1005.86 71 1013.13 71 1001.62 107.07 989.44 71 997.66 71 997.66 55.4 958.95 55.4 958.95 71 967.91 71 991.36 139.66 1008.27 139.66 1019.98 103.85 1032.32 139.66 1048.64 139.66 1071.44 71 1080.61 71 1080.61 55.4 1046.01 55.4 1046.01 71"/><path class="cls-2" d="M935.33,59.47a57,57,0,0,0-48.47,0,39.94,39.94,0,0,0-16.49,15.22,46.06,46.06,0,0,0,.14,45l1.5,2.63v-.39a40.2,40.2,0,0,0,15.16,12.93,56.31,56.31,0,0,0,48.08,0,39.29,39.29,0,0,0,16.44-15.21,46.12,46.12,0,0,0,0-44.92A39.69,39.69,0,0,0,935.33,59.47Zm-5,51.32a21.7,21.7,0,0,1-7.71,9.47,20.06,20.06,0,0,1-11.7,3.43,19.35,19.35,0,0,1-11.35-3.42,22.44,22.44,0,0,1-7.67-9.49A32.94,32.94,0,0,1,889.16,97a31.74,31.74,0,0,1,2.69-13.27,22.47,22.47,0,0,1,7.59-9.41,21,21,0,0,1,23.22,0,22.4,22.4,0,0,1,7.61,9.43A32.24,32.24,0,0,1,932.94,97,34.05,34.05,0,0,1,930.33,110.79Z"/><polygon class="cls-2" points="1162.66 83.05 1162.66 55.45 1088.55 55.45 1088.55 71.05 1098.47 71.05 1098.47 123.71 1088.55 123.71 1088.55 139.31 1162.62 139.31 1162.62 111.53 1145.27 111.53 1145.27 123.69 1121.4 123.69 1121.4 103.75 1141.96 103.75 1141.96 88.3 1121.4 88.3 1121.4 71.03 1145.27 71.03 1145.27 83.08 1162.66 83.05"/><path class="cls-2" d="M748.5,100.05a25.78,25.78,0,0,0,10.24-8.28,22.46,22.46,0,0,0,3.65-13.09c0-6.62-2.14-11.94-6.34-15.86h.24l-1.93-1.44c-5.26-3.92-12.6-5.91-21.83-5.91h-47.7v15.6h11.29v52.66H684.8v15.6h44.6v-15.6H719.12v-20.4h8.09l18.54,35.94H772v-15.6H761.12Zm-10-20.47c0,6-4,8.94-12.27,8.94h-7V71h8.92c3.25,0,5.84.73,7.68,2.18S738.45,76.71,738.45,79.58Z"/><polygon class="cls-2" points="835.61 123.69 812.94 123.69 812.94 71.03 825.01 71.03 825.01 55.43 778.21 55.43 778.21 71.03 789.93 71.03 789.93 123.69 778.19 123.69 778.19 139.29 853.3 139.29 853.3 98.33 835.61 98.33 835.61 123.69"/><polygon class="cls-2" points="599.71 71.08 609.63 71.08 609.63 123.74 599.71 123.74 599.71 139.34 673.78 139.34 673.78 111.53 656.42 111.53 656.42 123.69 632.56 123.69 632.56 103.75 653.11 103.75 653.11 88.3 632.56 88.3 632.56 71.03 656.42 71.03 656.42 83.08 673.81 83.08 673.81 55.48 599.71 55.48 599.71 71.08"/></g></g><g id="Löwe"><path id="Kopf" class="cls-1" d="M254,115.44l.16-.4-.42-.08c-8.33-1.62-12.69-4.68-13-9.12-.28-4.63-2.26-17.11-8-21.69,5.49-.37,15-1.39,16.38-15.91l0-.41-.41,0a38.57,38.57,0,0,0-4,.57c-2.56.47-3.17.59-5.13-2-3-3.87-7.84-5.81-10.43-6.61,4.76-3.17,7.35-11.1,7.9-13.75l.17-.82-.71.46c-1.08.71-1.85,1.25-2.39,1.63,1-2.29,2.82-7.21,2.41-9.64l-.09-.56-.46.34c-6,4.36-10.54,5.18-14.56,5.25,4-5.61,8.88-19,8.05-29.57l-.08-1.1-.57.94a17.34,17.34,0,0,1-8.6,7.26l-1.5.67c-4.61,2-12,5.29-16.1,8.87a15.76,15.76,0,0,1,9.26-8.2l-.12-.68-2.25,0c-7.08.09-15.07.18-22.72,6.37.55-2.31,3.09-5.7,5-8.25l1-1.36c2-2.75,1.76-4.5,1.21-8.34-.09-.67-.2-1.4-.3-2.22L193.67,6l-.51,1.07c-3.35,7-10.57,7.79-15.83,8.38-1,.12-2,.23-2.83.38A115.52,115.52,0,0,0,159,20.05c2.2-2.3,4.94-3.13,8.85-4.31l2-.61c1.34-.42,2.47-.73,3.52-1A41.73,41.73,0,0,0,184,9.86l.18-.1-.34-.61-.16.09c-3.57,1.88-11.68,2.4-19.53,2.9-4.45.28-9,.58-12.85,1.12a23.32,23.32,0,0,0-18,13.33c-20.14-6.1-37.95-3-53,9.12l.37.59c9-4.53,19.75-.75,25.07,1.53C94,37.09,76.54,41.65,72.56,44.47l.28.63c3-.71,11.07,0,16.58,1.43-23.12,1.06-34.66,13-34.78,13.17l-.29.31.36.23C57,61.7,64.77,63.13,71.17,63.35a51.68,51.68,0,0,0-29.66,40.73l-.11.94.69-.64c5.54-5.07,11.14-6.31,17.79-7.17-5.13,4.87-13.12,16.26-18.81,24.6-6.74,9.87-22.38,15.34-27.57,15.5l-.74,0,.49.56c8.14,9.3,23.33,8.76,30.33,8.27C11,169.84,24.72,207.53,24.86,207.92l.43,1.13.24-1.19c1.64-8,13.06-15.69,15.65-17.34.09,15.71-9,32.39-9.12,32.56l-.26.48.54,0c.27,0,26.78,1.94,37.91-13.39,3.43,4,9,21,6.35,33.92l-.11.51.51-.09c5.6-1,22.38-15.06,29.2-26.52-.48,5.48-2.84,24-13.27,30l-1.11.64,1.7,0c11.51.18,35.2.54,44.85-22.65.17,4.22.29,15.68-3.1,20.71l-.41.61.72-.06c.24,0,21.75-1.88,30.24-8.72a26.66,26.66,0,0,1-11.88,9.75l.14.67c.69,0,1.66.11,2.88.22,2.29.21,5.46.5,9.15.5,11.75,0,28.73-2.95,38.93-20.9-.87,5.09-3.19,11.4-4.49,13.24l.44.51c7-3.38,25.07-15.62,31.89-34-1.67,7.55-5,16.26-8.16,20.79l.49.48a66.85,66.85,0,0,0,18.62-22.06c7.28-14.33,7.81-30,1.58-46.63,1.56,0,6-.53,6.88-5.28l.05-.21-.18-.13c-5.22-3.79-11.2-9.52-9.95-15.18l.08-.42c.3-1.33.69-2.71,1.13-4.19,1.42-4.9,3-10.41.69-14.24A9.75,9.75,0,0,0,254,115.44ZM43.64,174.73h0Zm-12,7a27.9,27.9,0,0,1,9.82-6.1c-6.15,4.26-11.94,13.5-15.21,18.75-.64-26.57,14.48-36.62,19.36-39.16-10.77,12.4-12.77,19.7-14.55,26.16l-.33,1.22ZM175.38,39.6c-.1-.48-.25-.94-.39-1.39a13.25,13.25,0,0,1-.42-1.55,20.08,20.08,0,0,1-.35-3.2,15.17,15.17,0,0,1,.2-3.23c.1.75.26,1.44.37,1.93a44.23,44.23,0,0,0,1.65,5.28c.93,2.57,2,6.38.64,9.79a7.23,7.23,0,0,1-1.76,2.47c-.37.26-.73.53-1.08.82A16.35,16.35,0,0,0,175.46,40h0Zm-4.13-1.05a10.41,10.41,0,0,1-2-6.71,9.66,9.66,0,0,1,2-5A15.21,15.21,0,0,0,171.25,38.55Zm68.64,163.6c5.52-12.19,2.69-27.53,1.18-33.67C250.9,187.52,243.25,198.56,239.89,202.15Zm-35.62-12.72-.14-.63-.45.47c-2,2.1-8.55,6.86-13.73,7,2.32-2.47,2.5-4.61,2.62-8.54v-.48l-.46.13c-2.22.64-4.69,1.22-6.6.89,1.5-.77,2.28-1.66,4-4.75s6.78-7.73,14.86-10.16,16.9-3.12,20.71-1.58a16.06,16.06,0,0,1,7.7,7.83c1.7,3.87,1.06,8.91-1.76,13.81h0a18.09,18.09,0,0,1-3.66,4.55,15.42,15.42,0,0,1-2.52,1.9c-.82.33-1.63.69-2.42,1.09a6.44,6.44,0,0,0-1.11-4.71l-.27-.38-.29.37c-3,3.77-12.18,10-19.56,11.25C202.38,205.21,206.05,197.14,204.27,189.43Zm-18.94,15.11c-.08,6.3-3.18,12.47-9,18,4.87-9.17,3.79-19.79,1.91-27.3a70.67,70.67,0,0,0-5-13.51C181.39,189.38,185.44,197.07,185.33,204.54ZM119,199.08a146.19,146.19,0,0,0-11.22-14.3c-8.79-10.31-17.88-21-19.15-34.29-1.13-11.68-.55-28.11,4.59-37.18,0,0,0,.1,0,.14,0,1.41.07,2.9.14,4a121.34,121.34,0,0,0,1.73,14.11A101.8,101.8,0,0,0,108,166.33a68.6,68.6,0,0,0,13.54,16.25l.52-.47a115.12,115.12,0,0,1-16.26-33.78,122.93,122.93,0,0,1-4.14-20.92,35.8,35.8,0,0,1,.43-12.64c1.81-7.46,4.63-11.2,10.25-16.77a50.9,50.9,0,0,1,4.1-3.51c-9.55,12.84-11.11,27-4.23,39.28,1.61,2.86,3.45,5.6,5.23,8.26a92.21,92.21,0,0,1,6.8,11.28A86.43,86.43,0,0,1,132.75,194a69.3,69.3,0,0,1-4,20.64,58.88,58.88,0,0,1-4.48,9.59,30.39,30.39,0,0,1-5,6.57C123.08,216.74,124.19,207,119,199.08ZM86.88,228.84c0-1-.09-1.94-.13-2.84-.35-7.88-.59-13.08-4.68-24.57l-.92-2.55C77,187.19,72.23,174,72.75,159.1c1.56,10.5,4.16,24,14.91,34.41l.57-.39-.47-1.06c-5.52-12.49-14.58-33-9.78-55.05-.07,6.74.52,22.22,6.74,31.57,8.44,12.68,14.84,23.21,14.18,33.63h0C98.18,213.72,93.7,223.62,86.88,228.84ZM63.11,108.76c4.29-9.5,13.45-18.16,13.55-18.24l.63-.6H75.07c-10.91,0-16.55,1.39-24,4.4,8.8-14,18.11-21.87,27.68-23.28a20.32,20.32,0,0,1,14.6,3.45c-17.64.84-28.14,8-31.59,12.1l.42.53c3.81-1.84,14.65-.57,21.35,1.08-7.6,4-11.82,17.68-12.3,19.27a42.62,42.62,0,0,1-8.67,15.73l.4.56c7.52-3.17,15.82-14.21,20.35-22-4,16.32-15.8,25.61-25.19,30.57a69.57,69.57,0,0,1-22.37,7.31C47.08,134.3,59.19,117.42,63.11,108.76ZM141.2,39c-3.76-4-8.91-5.82-12.95-6.91A47.3,47.3,0,0,0,119.49,30c-.72-.06-3.51-.19-6-.19-.66,0-1.3,0-1.87,0,4.07-1.46,8.77-1.09,13-.6l.12,0A29.4,29.4,0,0,1,139.21,35a19.08,19.08,0,0,1,7,10.69,17.67,17.67,0,0,1,.39,2.87A25.73,25.73,0,0,0,141.2,39Zm-26.07,5.88a14.06,14.06,0,0,1,11.33.52,14.29,14.29,0,0,1,7.38,10.25,10.62,10.62,0,0,0,4.35,6c-3.21-1.33-8.26-3.73-9.91-6l-.63.27.12.56c.67,3.28,1,5.1,2.63,6.64-4.43-1.4-10.19-5.53-11.11-7.17l-.54-1L118.63,56c0,.45-.1,1-.17,1.53-.42,3.72-1,9.09-.4,11.9-2.12-1.57-6-5-5.53-9l-.66-.19c-.73,1.57-4.2,9.72-.7,16.51,1.89,3.66,5.46,6.21,10.63,7.62a40.18,40.18,0,0,1-5.91-.38,21.26,21.26,0,0,1-9.18-3.48c-6-4.3-8.29-12.41-5.57-19.8l.13-.22a28,28,0,0,1,5.79-9l.41-.45C109.67,48.71,112.15,46,115.13,44.84ZM164.35,218a42.19,42.19,0,0,1-6.49,8.16c-1.47,1.45-3,2.84-4.63,4.13-.3.24-.95.64-1.7,1.1a34.86,34.86,0,0,0-3.16,2.11c.09-.32.17-.66.27-1,2.77-10.28,8.47-31.37-6.53-51.5,5.94,4.37,18.21,17.34,18.34,27.66l.69,0c1.09-9.47.6-20.68-11.19-32.07l-2.4-2.3c-10.27-9.8-19.21-18.33-17.33-38.45.66,4.53,2.48,13.21,7.07,19.09,5.05,6.43,10.64,11.74,16.56,17.35l2.45,2.33c4.68,4.42,11.08,11.29,12.59,19.84A35.94,35.94,0,0,1,164.35,218Zm-1.22-73.7-.22-.2-.24.19c-2.53,2.06-2.49,5.71-2.45,8.92v.38c-7.31-6.65-9.36-21.7-9.23-26.28l0-.67-.56.37c-5.5,3.59-5.34,12.64-5.08,18.49-12.24-9.91-8.85-27.29-7.38-34.78l.17-.9h-.41a17.82,17.82,0,0,0-11,3.56,25.09,25.09,0,0,1,7.53-15l.63-.6H134a19.35,19.35,0,0,0-11.22,3.61c1.76-6,9.45-13.87,14.16-16.75l.91-.56L136.78,84a7.49,7.49,0,0,0-3.11.16,9.46,9.46,0,0,1-1.46.29c2.23-3.75,10.47-6,15.76-6h.59l-.29-.52a19,19,0,0,1-1.88-4.77,65.9,65.9,0,0,0,15.8,3.56l1.23.12-1-.74c-3.23-2.47-6.52-8.4-7.77-12.73a98.66,98.66,0,0,0,9.85,3h.8l-.46-.57c-.56-.68-1.18-1.56-1.83-2.49a43.85,43.85,0,0,0-3.4-4.43c19.87-2.65,36.14,17.45,36.31,17.65l.61-.28a58.1,58.1,0,0,0-2.86-9.59c5.39.48,9.37,3.06,15.1,7.86,3.56,3,6.38,8.35,8.36,15.93l0,.12c.52,2,2.39,2.92,4,3.76.55.28,1.07.54,1.51.82,1.55,1,2.55,4.87,1.43,7.16s-3.15,6.41-2.48,9.41c.54,2.37,3.46,5.13,8.69,8.21,2.66,1.57,4.08,4.56,5,6.54.25.53.46,1,.66,1.33s1,1.63-1.29,3c-1.21.73-5.56,1.09-7.79,1a14.93,14.93,0,0,1-4.62-1.46c-.95-.41-1.94-.83-2.9-1.14a2.53,2.53,0,0,0-2.28.08c-.79.59-.79,1.86-.79,2.88a1.74,1.74,0,0,1-.53,1.37,3.25,3.25,0,0,1-2.51.48,8.69,8.69,0,0,1-5-3.22,1.5,1.5,0,0,0-1.82-.68c-.32.18-.58.6-.32,1.31a22.82,22.82,0,0,0,5.12,6.55,29.11,29.11,0,0,0,7.83,4.82l.95.4c-.58,1.41-.24,2.07.45,3.18l.25.41c.57.95.57.95.52,1.53,0,.28-.06.7-.06,1.37a28.12,28.12,0,0,1-1.49,8.59c-4.19,6.69-8.86,8.15-15.31,10.16-1.73.54-3.53,1.1-5.48,1.82-12.18,4.78-19.92,4.23-21.85,4,2.41-7.31,13.8-13.17,20-16.33l1.22-.63-1.11-.14c-6.79-.89-19.48,8.26-23,11.46-.36-4.86,1.87-7.28,6.49-11.1,4.28-3.53,10.68-6.22,20.75-8.71l-.05-.69c-7-.68-17.56.6-28.93,10.55.09-4.89,1.14-5.9,4.27-8.92l.38-.37c3.39-3.29,7.31-4.94,14.81-7.4l-.05-.67c-6.25-1.11-14.78,2.95-18.89,4.91l-.78.37C168.64,148.26,164.44,145.5,163.13,144.29ZM217.62,35.71a13.71,13.71,0,0,0,3.63-4.24c-2.62,7.8-7.11,10.32-11.82,13l-1.26.71c-5.84,3.34-10.09,7.57-12.06,10.66C195.76,47.33,206,42,212.85,38.45c1.53-.79,2.84-1.47,3.85-2.09ZM202.09,54.66a12.91,12.91,0,0,1,6.62-3.73c-6.49,3.3-8,7.08-8.94,10A9.78,9.78,0,0,1,202.09,54.66Zm24.28,15.52c3.16,1.21,8.24,1.29,10.88,1.24C231.1,74.28,228.6,72.66,226.37,70.18Zm-8.89,1c9.56,7.86,20.51,4.72,25.37,2.66-5.2,4.21-10.18,5.91-14.84,5S219.61,74.51,217.48,71.19ZM218.89,140a1.87,1.87,0,0,1,.34-1.57,1.31,1.31,0,0,1,.93-.28,3.37,3.37,0,0,1,.52,0,.91.91,0,0,1,.76.47c.33.66,0,2-.89,3.65a8.89,8.89,0,0,0-.4.85l-.54-.86A5,5,0,0,1,218.89,140ZM232,172.17a43.93,43.93,0,0,0-3.95-4.57l-.52-.56a12.49,12.49,0,0,1-3.12-5.61c-.44-1.86.42-7.5,1-11.62l.26-1.73c.4-2.7,2.09-3.62,3.44-4.35.82-.44,1.52-.83,1.71-1.58a11.06,11.06,0,0,1,1.11-3.79,1.31,1.31,0,0,1,1.31-.63l.6,0a2.88,2.88,0,0,0,2-.34,6.34,6.34,0,0,0,1.22-1.61A86.6,86.6,0,0,1,232,172.17ZM208.32,60.73c6.14-1.65,12.76-6.32,15.49-8.38C220.61,58.54,215.41,61.36,208.32,60.73Zm24.14,46c-1.42-2.61-1.63-5.18-1.86-7.9-.1-1.22-.2-2.49-.42-3.77a15.11,15.11,0,0,0-2.52-6.41,16.21,16.21,0,0,0-2.72-2.86c5.28,1.82,6.74,8,8.05,13.46.41,1.7.73,3.34,1.21,4.8l.16.45a18.24,18.24,0,0,0,2.51,4.66q.12.15.3.42a24.06,24.06,0,0,0,2,2.57A10,10,0,0,1,232.46,106.76ZM181.79,32.32a22.44,22.44,0,0,0,.82,4.43,37.32,37.32,0,0,1,1,4.56c.62,5.85-.76,8.68-1.84,10,1.81-4.3.79-7.61-.37-11.38a42,42,0,0,1-1.63-6.63c-.69-4.88,1.86-8.69,3.85-10.86A16.07,16.07,0,0,0,181.79,32.32Zm-32.52,5.6c2.17,3,4.56,8.51,0,14.66A31.06,31.06,0,0,0,149.27,37.92Zm-80,94.71Zm-4.82,27.53c.16,1.66.52,3.82.93,6.32,2.37,14.23,6.76,40.61-15.78,46.74,1.91-5.45,7-21.11,6.45-32.49C55.54,170,55.3,158,58.66,150.47c-.9,8.95-1.95,26.64,2.54,35.07l.66-.19c-1.16-13.74-2.71-32.27,6-49.5C66.35,141.08,63.7,151.88,64.47,160.16Z"/><path id="Auge_Links" data-name="Auge Links" class="cls-1" d="M180.38,88.14l-.64.28c0,.06,1.69,6.08-.19,8a2.5,2.5,0,0,1-2.57.38l-1.21-.47A15.87,15.87,0,0,0,168,94.81c-4.93.34-8.59-.29-9.78-1.68l-.53.45a15.9,15.9,0,0,0,5,4.08s.9.49,1.35.7,1.16.51,1.71.8a8.43,8.43,0,0,1,2.1,1.84,11.07,11.07,0,0,0,1.82,1.7,6.9,6.9,0,0,0,4.26,1,9,9,0,0,0,1-.13,7.31,7.31,0,0,1,2-.18c1.28,1.38,3.88,5.07,3.91,5.11l.75,1.07-.76-8.23C181.6,100.54,185.25,96.1,180.38,88.14Z"/><path id="Auge_rechts" data-name="Auge rechts" class="cls-1" d="M221.59,99.49l0-.28-.28,0a8.69,8.69,0,0,0-5.93,1.27c-.25-.35-.85-1.76-.39-4.7l.2-1.31-.82,1c-1.49,1.87-2.82,3.93-1.34,6.73,1.3,2.48,4.88,8,4.92,8l.65-.18-.48-4.1C219,105.56,221.89,104,221.59,99.49Z"/></g></svg>