<svg xmlns="http://www.w3.org/2000/svg" xmlns:xlink="http://www.w3.org/1999/xlink" width="1120.517" height="537.335" xmlns:v="https://vecta.io/nano"><style><![CDATA[.B{fill-rule:evenodd}.C{fill:#007f60}]]></style><g fill="#231f20"><g class="B"><path d="M7.65 477.54v46.195h21.459c3.529 0 5.956-.504 8.098-1.607 4.506-2.206 7.09-6.554 7.09-11.817 0-4.317-1.607-7.5-4.853-9.705-1.197-.756-2.017-1.103-4.033-1.67 4.317-1.67 6.806-5.325 6.806-10.052 0-4.002-2.489-7.941-6.176-9.831-2.269-1.103-4.79-1.513-9.831-1.513zm6.082 5.325h11.565c3.466 0 5.199.158 6.397.567 2.836.882 4.412 3.309 4.412 6.586 0 3.183-1.859 5.735-4.695 6.554-1.607.504-3.34.63-6.649.63h-11.03zm0 19.253h11.155c4.222 0 6.649.221 7.972.693 3.403 1.103 5.262 3.876 5.262 7.626 0 3.057-1.26 5.546-3.529 6.775-1.67.914-3.813 1.197-8.666 1.197H13.732m69.638.931c-.63.284-.977.347-1.45.347-1.607 0-2.206-.977-2.206-3.246l.063-2.143.126-5.357.063-8.098c0-4.569-.536-6.586-2.269-8.224-2.143-2.017-6.019-3.277-10.336-3.277-8.792 0-13.991 4.222-14.18 11.438h5.388c.504-4.853 2.931-6.869 8.256-6.869 5.042 0 7.531 1.954 7.531 5.83 0 2.836-1.386 3.939-5.861 4.443l-4.79.599c-1.859.221-3.939.693-5.262 1.197-4.38 1.67-6.586 4.758-6.586 9.264 0 5.83 4.096 9.485 10.745 9.485 5.105 0 8.855-1.639 12.1-5.388 0 3.183 1.733 4.979 4.79 4.979 1.386 0 2.552-.189 3.876-.693zm-8.918-7.972c0 2.426-.221 3.403-1.04 4.569-2.017 2.836-5.483 4.506-9.359 4.506-3.939 0-6.523-2.206-6.523-5.672 0-2.143 1.04-3.876 2.836-4.79 1.544-.819 2.773-1.103 6.649-1.576 4.916-.63 5.83-.851 7.437-2.017"/><use xlink:href="#B"/><use xlink:href="#B" x="38.06"/><use xlink:href="#C"/></g><path d="M223.44 490.27h-6.712v-9.957h-5.483v9.957h-5.609v4.506h5.609v20.356l.063 1.859c0 1.954.221 3.34.63 4.159 1.04 2.206 3.183 3.12 7.279 3.12 1.67 0 2.71-.063 4.159-.284v-4.695c-1.197.284-1.891.41-2.994.41-3.12 0-3.655-.756-3.655-5.199v-19.726h6.712"/><use xlink:href="#D" class="B"/><path d="M288 489.33c-6.302 0-10.115 2.426-12.541 7.972v-6.995h-5.105v33.433h5.451v-13.014c0-7.531.693-10.304 3.183-12.888 1.891-1.859 4.38-2.899 7.279-2.899.284 0 .977.063 1.733.126"/><g class="B"><use xlink:href="#C" x="125.23"/><use xlink:href="#D" x="104.33"/><path d="M380.14 477.54h-5.483v46.195h5.483v-15.787c0-5.199.221-6.806.977-8.666 1.45-3.403 4.569-5.325 8.571-5.325 2.71 0 4.916.882 6.113 2.552.882 1.26 1.166 2.773 1.166 6.176v21.049h5.483v-21.743c0-3.813-.347-5.893-1.26-7.689-1.733-3.246-5.199-4.979-9.957-4.979-5.01 0-8.666 1.922-11.218 5.735l.063-.693v-1.45a22.3 22.3 0 0 0 .063-1.796m39.669-.849h-5.136v33.433h5.483v-17.709c0-3.403.284-5.325.914-6.869 1.292-3.246 4.412-5.262 8.098-5.262 2.552 0 4.569 1.04 5.388 2.836.63 1.197.819 2.773.819 5.546v21.459h5.483v-17.709c0-3.939.126-5.546.693-6.932 1.26-3.183 4.222-5.105 7.909-5.105 2.836 0 5.105 1.166 6.019 3.088.473.977.693 2.773.693 5.609v21.049h5.451v-23.035c0-3.403-.41-5.42-1.576-7.216-1.733-2.615-4.979-4.159-8.855-4.159-4.79 0-8.382 1.891-11.218 5.893-1.67-4.096-4.506-5.893-9.17-5.893-4.695 0-7.878 1.67-10.997 5.83"/><use xlink:href="#B" x="381.43"/><path d="M519.16 490.27h-5.136v33.433h5.483v-16.197c0-4.412.284-6.586 1.166-8.508 1.386-3.12 4.569-5.042 8.382-5.042 3.277 0 5.767 1.355 6.649 3.718.504 1.45.63 2.647.63 6.365v19.663h5.483v-21.585c0-4.096-.347-6.019-1.386-7.972-1.67-3.057-5.199-4.853-9.642-4.853-5.199 0-8.634 1.891-11.628 6.176m63.499-5.198h-5.136v4.853c-2.773-4.096-5.861-5.83-10.651-5.83-8.855 0-14.968 7.216-14.968 17.804 0 10.241 5.83 17.047 14.621 17.047 5.042 0 8.224-1.828 10.651-6.113v4.033c0 7.594-3.12 10.997-9.894 10.997-5.136 0-7.972-1.796-8.571-5.546h-5.703c.441 2.994 1.26 4.853 3.12 6.523 2.363 2.08 6.46 3.309 10.808 3.309 6.365 0 11.029-2.143 13.424-6.082 1.67-2.773 2.3-5.672 2.3-11.155zm-15.157 3.687c5.893 0 9.611 4.758 9.611 12.447 0 7.972-3.876 13.077-9.894 13.077-5.956 0-9.705-4.916-9.705-12.73 0-8.035 3.687-12.793 9.989-12.793"/></g><use xlink:href="#E"/><path d="M672.72 490.27h-5.136v33.433h5.483v-17.709c0-3.403.284-5.325.914-6.869 1.292-3.246 4.412-5.262 8.098-5.262 2.552 0 4.569 1.04 5.388 2.836.63 1.197.851 2.773.851 5.546v21.459h5.451v-17.709c0-3.939.158-5.546.693-6.932 1.26-3.183 4.222-5.105 7.909-5.105 2.836 0 5.105 1.166 6.019 3.088.473.977.693 2.773.693 5.609v21.049h5.451v-23.035c0-3.403-.41-5.42-1.576-7.216-1.733-2.615-4.979-4.159-8.855-4.159-4.79 0-8.382 1.891-11.218 5.893-1.67-4.096-4.506-5.893-9.17-5.893-4.695 0-7.878 1.67-10.997 5.83m59.522-17.584h-5.483v46.195h5.136v-4.853c2.017 3.813 5.83 5.83 10.871 5.83 9.485 0 15.598-6.932 15.598-17.615 0-10.997-5.83-17.772-15.314-17.772-4.727 0-8.603 1.985-10.808 5.609zm10.304 16.417c6.239 0 10.21 5.105 10.21 13.14 0 7.783-4.159 12.951-10.336 12.951-6.365 0-10.304-4.916-10.304-13.014 0-8.161 3.939-13.077 10.43-13.077" class="B"/><path d="M805.72 477.54h-6.082v19.253h-24.39V477.54h-6.082v46.195h6.082v-21.617h24.39v21.617h6.082"/><path d="M865.22 501.84c-.063 2.017-.725 4.916-1.513 7.216l-8.413-10.21c5.672-3.088 8.539-7.121 8.539-11.974 0-5.609-4.349-9.611-10.336-9.611-6.617 0-10.997 3.876-10.997 9.768 0 3.309 1.418 6.554 4.947 10.714-1.481.693-3.687 2.143-5.577 3.624-3.435 2.741-5.168 6.145-5.168 10.367 0 3.403 1.071 6.365 3.183 8.666 2.741 2.962 6.176 4.285 11.218 4.285 3.781 0 7.342-1.166 9.926-3.372 1.418-1.134 2.678-2.521 3.151-3.403l4.916 5.798h7.185l-8.981-10.367c1.544-2.584 3.057-7.752 3.183-11.502zm-12.983-6.649c-.063-.126-.095-.221-.095-.221-3.277-3.939-4.38-6.019-4.38-8.161 0-2.899 2.363-5.042 5.483-5.042 2.931 0 5.262 2.332 5.262 5.514 0 3.057-1.985 5.546-6.113 8.035zm8.886 18.97c-2.962 4.096-5.956 5.83-9.863 5.83-4.884 0-8.823-3.813-8.823-8.539 0-4.002 2.08-6.712 7.689-9.894.063-.063.221-.126.315-.189" class="B"/><path d="M938.32 506.34c-1.008 8.666-5.735 13.235-13.739 13.235-9.39 0-15.409-7.405-15.409-18.844 0-4.632 1.103-9.075 3.214-12.321 2.741-4.569 6.806-6.712 12.51-6.712 6.743 0 11.628 3.655 13.014 9.674h6.082c-.284-3.183-1.576-6.145-3.939-8.792-3.655-4.065-8.666-6.082-15.094-6.082s-11.502 2.017-15.44 6.145c-4.38 4.664-6.523 10.682-6.523 18.15 0 14.684 8.319 23.98 21.396 23.98 11.502 0 19.096-6.932 20.009-18.434"/><path d="M968.82 489.33c-10.178 0-16.48 6.775-16.48 17.867 0 10.588 6.428 17.52 16.26 17.52 10.115 0 16.134-6.586 16.134-17.583 0-5.609-1.355-9.768-4.222-12.888-2.899-3.183-6.995-4.916-11.691-4.916m-.063 4.632c6.365 0 10.367 5.073 10.367 13.172 0 8.035-4.002 12.951-10.525 12.951-6.554 0-10.651-4.979-10.651-13.109 0-8.035 4.159-13.014 10.808-13.014" class="B"/><path d="M994.92 523.74h7.563v-7.216h-7.563zm78.1-46.2h-8.035l-20.356 19.946-3.057 3.057V477.54h-6.082v46.195h6.082v-16.197l7.689-7.279 16.764 23.476h7.752l-20.293-27.635"/><use xlink:href="#E" x="463.35"/></g><path d="M539.65 109.4h29.62l11.785 48.558 10.21-27.131h29.116l-13.802 43.958h-40.901l-10.682-48.558-10.745 49.567h-40.87l-13.833-44.462h29.116l10.241 27.131zm-4.096 0l-3.057 17.835h-45.502v51.647h135.938v-51.111h-44.966l-4.096-18.371h66.992v86.876H469.664V109.4zM452.27 212.094V63.898L554.492-.006 657.69 63.898v148.196M0 360.61c0 48.527 30.629 87.412 82.716 87.412 52.056 0 82.685-38.885 82.685-87.412 0-49.945-30.629-88.83-82.685-88.83C30.629 271.78 0 310.665 0 360.61m36.994 0c0-29.463 12.478-57.728 45.722-57.728 33.213 0 45.722 28.265 45.722 57.728 0 28.045-12.51 56.31-45.722 56.31-33.244 0-45.722-28.265-45.722-56.31" class="B C"/><path d="M229.42 285.71h-33.465v36.521h-20.262v22.404h20.262v71.845c0 24.295 17.898 28.99 38.412 28.99 6.586 0 13.896-.252 19.568-1.166V418.15c-3.529.693-6.838.945-10.367.945-11.312 0-14.148-2.836-14.148-14.148v-60.312h24.516v-22.404H229.42m82.85-36.521h-33.465v36.521h-20.262v22.404h20.262v71.845c0 24.295 17.898 28.99 38.412 28.99 6.586 0 13.896-.252 19.568-1.166V418.15c-3.529.693-6.838.945-10.367.945-11.312 0-14.148-2.836-14.148-14.148v-60.312h24.516v-22.404H312.27" class="C"/><path d="M348.94 383.23c0 38.632 24.736 64.093 62.927 64.093 38.412 0 63.148-25.461 63.148-64.093 0-38.885-24.736-64.345-63.148-64.345-38.191 0-62.927 25.461-62.927 64.345m33.465 0c0-19.568 6.838-39.105 29.463-39.105 22.845 0 29.683 19.537 29.683 39.105 0 19.316-6.838 38.885-29.683 38.885-22.625 0-29.463-19.568-29.463-38.885" class="B C"/><path d="M771.03 275.81h-36.301l-27.572 115.929h-.473L677.947 275.81h-34.599l-29.211 114.511h-.473L587.037 275.81h-36.994l44.525 168.206h37.467l28.013-114.479h.473l28.517 114.479h36.742M894.42 322.23h-33.465v63.873c0 24.736-7.783 34.851-25.902 34.851-15.566 0-21.459-9.894-21.459-29.904v-68.82H780.13v74.933c0 30.156 8.949 50.197 44.525 50.197 14.148 0 28.77-6.617 37.246-20.262h.693v16.953h31.826zm26.375 121.822h33.462V275.83h-33.462zm67.125-.032h33.465v-99.449h23.098v-22.373h-23.098v-7.311c0-10.147 3.781-13.896 12.762-13.896 4.191 0 8.193.221 12.258.693V276.76c-5.672-.252-11.785-.945-17.709-.945-27.352 0-40.775 15.503-40.775 36.962v9.422H967.88v22.373h20.041" class="C"/><path d="M1062.02 444.02h33.465v-99.449h23.098v-22.373h-23.098v-7.311c0-10.147 3.781-13.896 12.73-13.896 4.222 0 8.224.221 12.258.693V276.76c-5.672-.252-11.785-.945-17.678-.945-27.352 0-40.775 15.503-40.775 36.962v9.422h-20.041v22.373h20.041" class="C"/><defs ><path id="B" d="M120.15 490.27h-5.483v16.197c0 4.443-.347 6.649-1.166 8.445-1.67 3.183-4.79 5.136-8.445 5.136-3.466 0-5.956-1.386-6.712-3.813-.504-1.45-.63-2.836-.63-6.239V490.27h-5.483v21.68c0 4.443.567 6.932 2.08 8.855 1.954 2.552 5.073 3.876 9.296 3.876 4.758 0 8.918-2.206 11.407-6.145v5.168h5.136"/><path id="C" d="M175.79 490.27h-5.136v33.433h5.483v-16.197c0-4.412.284-6.586 1.166-8.508 1.386-3.12 4.569-5.042 8.382-5.042 3.277 0 5.767 1.355 6.649 3.718.504 1.45.63 2.647.63 6.365v19.663h5.483v-21.585c0-4.096-.347-6.019-1.386-7.972-1.67-3.057-5.199-4.853-9.642-4.853-5.199 0-8.666 1.891-11.628 6.176"/><path id="D" d="M254.57 512.99c-1.607 4.979-4.222 7.058-8.855 7.058-6.806 0-10.336-3.876-10.525-11.691h25.114c.095-4.38-.41-7.342-1.386-9.926-2.269-5.672-7.468-9.138-13.77-9.138-9.138 0-15.661 7.437-15.661 17.867 0 10.808 6.113 17.52 15.819 17.52 8.004 0 12.951-3.876 14.653-11.691zm-19.316-9.138c.819-6.523 4.222-9.989 9.768-9.989s9.138 3.687 9.611 9.989"/><path id="E" d="M655.67 499.35h-20.23v4.916h14.747c-.063 3.246-.473 5.609-1.513 7.752-2.269 4.79-7.058 7.563-12.888 7.563-9.957 0-16.26-7.279-16.26-18.718 0-11.628 6.302-19.159 15.976-19.159 7.5 0 12.762 3.876 13.644 10.02h5.956c-.882-9.201-8.571-15.22-19.316-15.22-13.298 0-22.436 9.894-22.436 24.358 0 14.338 8.792 23.917 22.026 23.917 6.365 0 11.029-2.174 14.81-6.806.347.914.284.693.693 2.237l.914 3.529h3.876"/></defs></svg>