<?xml version="1.0" encoding="UTF-8" standalone="no"?>
<!-- Created with Inkscape (http://www.inkscape.org/) -->
<svg
   xmlns:svg="http://www.w3.org/2000/svg"
   xmlns="http://www.w3.org/2000/svg"
   version="1.0"
   width="867.13287"
   height="147.72728"
   id="svg3270">
  <defs
     id="defs3272">
    <clipPath
       id="clipPath115">
      <path
         d="M 1517.219,71.12109 L 1751.629,71.12109 L 1751.629,25.11328 L 1517.219,25.11328 L 1517.219,71.12109 z"
         id="path117" />
    </clipPath>
  </defs>
  <g
     transform="translate(145.97902,-389.77478)"
     id="layer1">
    <path
       d="M 382.1496,500.10229 L 395.35034,500.10229 L 403.12294,467.66142 L 403.28768,467.66142 L 411.57142,500.10229 L 425.08476,500.10229 L 432.70951,467.66142 L 432.87426,467.66142 L 440.65953,500.10229 L 456.88061,500.10229 L 441.88455,443.90007 L 426.7998,443.90007 L 419.50876,474.87233 L 419.34402,474.87233 L 411.57142,443.90007 L 397.06538,443.90007 L 382.1496,500.10229"
       id="path119"
       style="fill:#231f20;fill-opacity:1;fill-rule:nonzero;stroke:none" />
    <path
       d="M 683.01258,478.63457 L 688.42383,478.63457 L 696.60619,500.10229 L 715.78,500.10229 L 705.63337,475.61488 C 712.26544,472.57869 715.53499,468.15645 715.53499,460.78057 C 715.53499,455.28571 713.32149,450.28593 708.65371,447.34878 C 704.48017,444.56014 699.06468,443.90007 694.16457,443.90007 L 665.57069,443.90007 L 665.57069,500.10229 L 683.01258,500.10229 L 683.01258,478.63457 z M 683.01258,455.86325 L 689.97412,455.86325 C 691.6258,455.86325 693.42111,455.86325 694.89114,456.6058 C 696.60619,457.49685 697.59887,459.31195 697.59887,461.19305 C 697.59887,466.02781 693.09161,466.5889 689.33203,466.5889 L 683.01258,466.5889 L 683.01258,455.86325"
       id="path121"
       style="fill:#231f20;fill-opacity:1;fill-rule:evenodd;stroke:none" />
    <path
       d="M 656.18021,486.67049 L 630.85167,486.67049 L 630.85167,477.5785 L 651.34346,477.5785 L 651.34346,465.03779 L 630.85167,465.03779 L 630.85167,456.85331 L 656.18021,456.85331 L 656.18021,443.90007 L 613.98851,443.90007 L 613.98851,500.10229 L 656.18021,500.10229 L 656.18021,486.67049"
       id="path123"
       style="fill:#231f20;fill-opacity:1;fill-rule:nonzero;stroke:none" />
    <path
       d="M 607.22127,486.3405 L 585.17497,486.3405 L 585.17497,443.90007 L 567.81758,443.90007 L 567.81758,500.10229 L 607.22127,500.10229 L 607.22127,486.3405"
       id="path125"
       style="fill:#231f20;fill-opacity:1;fill-rule:nonzero;stroke:none" />
    <path
       d="M 560.47585,486.3405 L 538.44644,486.3405 L 538.44644,443.90007 L 521.07214,443.90007 L 521.07214,500.10229 L 560.47585,500.10229 L 560.47585,486.3405"
       id="path127"
       style="fill:#231f20;fill-opacity:1;fill-rule:nonzero;stroke:none" />
    <path
       d="M 509.3879,443.90007 L 495.87455,443.90007 L 495.87455,478.30454 C 495.87455,480.92819 496.11957,483.88188 493.89339,485.76295 C 492.42335,487.08305 489.96484,487.66059 488.00057,487.66059 C 485.7913,487.66059 483.16805,486.91803 481.86276,485.11942 C 480.70954,483.38683 480.7898,480.84571 480.7898,478.96457 L 480.7898,443.90007 L 463.25076,443.90007 L 463.25076,480.92819 C 463.25076,487.66059 464.4082,492.97386 470.38128,496.91759 C 474.73647,499.77221 481.453,500.9273 486.61502,500.9273 C 492.50784,500.9273 498.41332,499.93726 503.25009,496.17502 C 508.64444,491.83531 509.3879,486.588 509.3879,480.03714 L 509.3879,443.90007 z M 493.89339,436.27664 C 496.93062,436.27664 499.38913,433.98304 499.38913,430.88086 C 499.38913,427.92717 497.01088,425.46852 493.97787,425.46852 C 490.95755,425.46852 488.5793,427.84469 488.5793,430.88086 C 488.5793,433.81799 491.03781,436.27664 493.89339,436.27664 z M 479.48873,436.27664 C 482.50907,436.27664 484.96757,433.98304 484.96757,430.88086 C 484.96757,427.92717 482.58933,425.46852 479.56899,425.46852 C 476.536,425.46852 474.15775,427.84469 474.15775,430.88086 C 474.15775,433.81799 476.61626,436.27664 479.48873,436.27664"
       id="path129"
       style="fill:#231f20;fill-opacity:1;fill-rule:evenodd;stroke:none" />
    <path
       d="M 290.1879,485.06995 C 291.06232,496.45555 302.36639,500.9273 312.76223,500.9273 C 317.8271,500.9273 324.95762,499.68973 328.81857,496.17502 C 332.99212,499.45874 336.75592,500.67979 342.08691,500.67979 C 344.29619,500.67979 346.58995,500.34976 348.71896,499.77221 L 348.71896,487.66059 C 347.24892,487.80907 346.02812,487.89157 345.03965,487.89157 C 342.91064,487.89157 341.19559,487.72655 339.45943,486.3405 C 339.92411,485.92797 340.35075,485.49895 340.76472,485.05342 L 318.81981,485.06995 L 320.13777,486.5055 C 318.49031,488.1391 316.0318,488.79914 313.8183,488.79914 C 310.78107,488.79914 308.17471,487.57809 307.15245,485.06995 L 290.1879,485.06995"
       id="path131"
       style="fill:#231f20;fill-opacity:1;fill-rule:evenodd;stroke:none" />
    <path
       d="M 307.15245,485.06995 C 306.85675,484.34388 306.69201,483.51883 306.69201,482.57828 C 306.69201,479.5421 308.00997,477.49602 310.78107,476.25842 L 318.81981,485.06995 L 340.76472,485.06995 C 344.89181,480.66419 347.37988,474.85586 348.71896,468.96502 L 334.14956,467.24893 C 333.4061,470.6151 332.41339,474.29478 329.87463,476.75346 L 324.14657,470.69759 C 330.45335,468.56902 334.79165,463.65169 334.79165,456.85331 C 334.79165,446.85376 325.78134,443.07505 317.10053,443.07505 C 308.09445,443.07505 298.58992,446.68874 298.58992,457.16685 C 298.58992,461.52309 300.63445,464.87281 303.17745,468.15645 C 295.79769,470.78009 290.14143,475.11986 290.14143,483.63434 C 290.14143,484.12935 290.15834,484.59138 290.1879,485.06995 L 307.15245,485.06995 z M 313.4888,456.77081 C 313.4888,454.47719 315.30523,453.15709 317.43424,453.15709 C 319.89275,453.15709 321.68806,454.79074 321.68806,457.33186 C 321.68806,459.873 319.89275,461.83662 317.599,462.57914 C 315.86283,461.19305 313.4888,459.06448 313.4888,456.77081"
       id="path133"
       style="fill:#231f20;fill-opacity:1;fill-rule:evenodd;stroke:none" />
    <path
       d="M 258.77225,479.04706 L 258.77225,466.42385 L 240.48973,466.42385 L 240.48973,457.24933 L 264.33134,457.24933 L 264.33134,443.90007 L 223.68994,443.90007 L 223.68994,500.10229 L 240.48973,500.10229 L 240.48973,479.04706 L 258.77225,479.04706"
       id="path135"
       style="fill:#231f20;fill-opacity:1;fill-rule:nonzero;stroke:none" />
    <path
       d="M 212.0226,479.04706 L 212.0226,466.42385 L 193.75699,466.42385 L 193.75699,457.24933 L 217.60281,457.24933 L 217.60281,443.90007 L 176.96141,443.90007 L 176.96141,500.10229 L 193.75699,500.10229 L 193.75699,479.04706 L 212.0226,479.04706"
       id="path137"
       style="fill:#231f20;fill-opacity:1;fill-rule:nonzero;stroke:none" />
    <path
       d="M 170.11392,486.3405 L 148.08451,486.3405 L 148.08451,443.90007 L 130.70598,443.90007 L 130.70598,500.10229 L 170.11392,500.10229 L 170.11392,486.3405"
       id="path139"
       style="fill:#231f20;fill-opacity:1;fill-rule:nonzero;stroke:none" />
    <path
       d="M 94.935137,443.07505 C 77.805837,443.07505 68.052068,455.36826 68.052068,472.16618 C 68.052068,488.1391 77.890321,500.9273 94.935137,500.9273 C 111.96305,500.9273 121.79707,488.1391 121.79707,472.16618 C 121.79707,455.36826 112.0433,443.07505 94.935137,443.07505 z M 94.935137,455.78076 C 102.53876,455.78076 103.36672,466.75388 103.36672,472.24869 C 103.36672,477.661 102.788,488.05662 94.935137,488.05662 C 87.061155,488.05662 86.48666,477.661 86.48666,472.24869 C 86.48666,466.75388 87.310381,455.78076 94.935137,455.78076"
       id="path141"
       style="fill:#231f20;fill-opacity:1;fill-rule:evenodd;stroke:none" />
    <path
       d="M 65.035971,443.90007 L 51.847895,443.90007 L 44.062625,476.34095 L 43.897869,476.34095 L 35.631042,443.90007 L 22.11347,443.90007 L 14.492941,476.34095 L 14.328199,476.34095 L 6.5387023,443.90007 L -9.6823787,443.90007 L 5.3178943,500.10229 L 20.381529,500.10229 L 27.676803,469.13002 L 27.841544,469.13002 L 35.631042,500.10229 L 50.132849,500.10229 L 65.035971,443.90007"
       id="path143"
       style="fill:#231f20;fill-opacity:1;fill-rule:nonzero;stroke:none" />
    <path
       d="M -144.57922,464.75726 L -49.022268,464.75726 L -49.022268,460.53302 L -144.57922,460.53302 L -144.57922,464.75726 z"
       id="path145"
       style="fill:#231f20;fill-opacity:1;fill-rule:nonzero;stroke:none" />
    <path
       d="M -49.018488,531.86657 L -68.707678,531.86657 L -78.144628,504.88754 L -86.973288,531.86657 L -106.64133,531.86657 L -115.47,504.88754 L -124.90694,531.86657 L -144.57922,531.86657 L -124.90694,475.6479 L -106.36253,475.6479 L -96.807308,502.62693 L -87.252088,475.6479 L -68.707678,475.6479 L -49.018488,531.86657 L -49.018488,531.86657"
       id="path147"
       style="fill:#b62134;fill-opacity:1;fill-rule:nonzero;stroke:none" />
    <path
       d="M -144.57922,393.42371 L -124.90694,393.42371 L -115.47,420.40276 L -106.64133,393.42371 L -86.973288,393.42371 L -78.144628,420.40276 L -68.707678,393.42371 L -49.018488,393.42371 L -68.707678,449.6259 L -87.252088,449.6259 L -96.807308,422.64688 L -106.36253,449.6259 L -124.90694,449.6259 L -144.57922,393.42371 L -144.57922,393.42371"
       id="path149"
       style="fill:#b62134;fill-opacity:1;fill-rule:nonzero;stroke:none" />
  </g>
</svg>
